<?xml version="1.0" encoding="UTF-8"?><svg id="Seal" xmlns="http://www.w3.org/2000/svg" width="150" height="150" viewBox="0 0 150 150"><path d="m21.11,114.83l-6.68,4.47-.84-1.26,2.76-1.84-1.99-2.99-2.76,1.84-.84-1.26,6.68-4.47.84,1.26-2.75,1.84,2,2.99,2.75-1.84.84,1.26Zm7.64,9.08c.16.66.13,1.32-.09,1.99-.22.67-.63,1.29-1.22,1.88-.59.59-1.22.99-1.89,1.21-.67.22-1.33.25-1.99.08-.66-.17-1.27-.53-1.84-1.1-.57-.57-.93-1.18-1.09-1.84-.16-.66-.13-1.32.09-1.99.22-.67.63-1.29,1.22-1.88.59-.59,1.22-.99,1.89-1.21.67-.22,1.33-.25,1.99-.08.66.17,1.27.53,1.84,1.1s.93,1.18,1.09,1.84Zm-1.46.31c-.08-.4-.29-.78-.65-1.15-.35-.37-.73-.59-1.13-.67-.4-.08-.81-.03-1.22.14-.41.17-.82.46-1.22.85-.4.39-.68.8-.85,1.2-.17.41-.22.81-.14,1.21.08.4.29.78.65,1.15s.73.59,1.13.67c.4.08.81.03,1.22-.14.41-.17.82-.46,1.22-.85.4-.39.68-.8.85-1.2.17-.41.22-.81.14-1.21Zm7.93,11.11l.72-5.92-1.14-.75-4.43,6.71,1.18.78,2.64-4.01-.7,5.29.45.3,4.59-2.72-2.64,4.01,1.18.78,4.43-6.71-1.14-.75-5.15,2.99Zm8.88,8.03l4.85,2,.54-1.31-3.45-1.42.79-1.91,2.83,1.17.54-1.31-2.83-1.17.66-1.59,3.44,1.42.54-1.31-4.85-2-3.06,7.43Zm15.15-1.57c.16-.11.35-.17.57-.2s.45-.01.68.05c.23.06.45.16.65.29.2.14.35.31.47.52.12.21.18.45.18.71l1.66.07c-.02-.52-.14-.98-.35-1.38s-.51-.74-.9-1.01c-.39-.27-.85-.47-1.39-.59-.54-.12-1.05-.14-1.53-.07s-.89.26-1.23.55c-.34.29-.57.7-.68,1.23-.08.37-.09.7-.01.97.07.27.19.5.34.69.16.19.33.35.51.47.18.12.35.22.49.3l1.91,1.04c.14.08.26.16.34.24.09.08.15.16.19.24.04.08.06.16.07.24,0,.08,0,.16-.01.24-.05.22-.16.39-.34.5-.18.12-.39.19-.64.22-.25.03-.49.01-.73-.04-.44-.09-.8-.3-1.09-.62-.29-.32-.44-.71-.45-1.19l-1.6-.11c-.03.55.06,1.05.27,1.5.22.45.54.83.96,1.13.42.31.92.52,1.51.65.4.09.8.12,1.2.1.4-.02.77-.1,1.11-.24s.64-.35.88-.63c.24-.28.41-.63.5-1.05.09-.4.08-.74,0-1.03-.09-.29-.23-.54-.43-.75-.19-.21-.4-.38-.63-.53-.23-.14-.44-.26-.63-.36l-1.28-.67c-.16-.08-.31-.17-.46-.27-.15-.1-.26-.22-.34-.35-.08-.13-.11-.28-.07-.45.04-.19.14-.33.3-.44Zm10.46,8.03l5.24.19.05-1.42-3.72-.13.07-2.06,3.05.11.05-1.42-3.05-.11.06-1.72,3.72.13.05-1.42-5.24-.19-.29,8.03Zm17.12-3.79l1.85,2.75-1.7.24-1.68-2.52-1.68.23.38,2.7-1.5.21-1.11-7.96,3.36-.47c.08-.01.18-.02.31-.04.13-.01.25-.02.36-.01.49,0,.9.11,1.23.31.34.2.6.47.8.81.19.34.32.74.38,1.18.09.67,0,1.26-.26,1.78-.16.32-.41.58-.74.78Zm-1.62-.95c.08-.01.16-.03.25-.05.09-.02.17-.05.25-.08.19-.08.34-.2.43-.34.09-.15.15-.3.17-.47.02-.17.02-.32,0-.47-.02-.14-.06-.29-.13-.45-.06-.15-.16-.29-.29-.4-.13-.12-.3-.19-.51-.21-.08-.01-.17-.01-.26,0-.09,0-.18.01-.26.02l-1.79.25.34,2.46,1.79-.25Zm12.85-7.22l.15,6.92-3.99-5.64-1.48.49,4.87,6.85,2.15-.72-.21-8.4-1.48.49Zm6.77-2.96l3.67,7.15,1.35-.69-3.67-7.15-1.35.69Zm14.6-3.04c.17.48.19.93.06,1.36-.12.43-.41.81-.86,1.14-.41.3-.82.46-1.23.48-.41.02-.8-.09-1.19-.32-.38-.23-.74-.57-1.07-1.02-.33-.45-.55-.89-.66-1.33s-.09-.84.05-1.23c.14-.38.41-.73.83-1.03.45-.33.9-.49,1.34-.48.44,0,.87.16,1.28.47l.98-1.25c-.67-.48-1.39-.72-2.17-.71-.78,0-1.54.28-2.28.82-.65.48-1.1,1.03-1.36,1.65-.26.63-.33,1.29-.21,1.98.12.69.42,1.38.92,2.05.49.67,1.05,1.17,1.68,1.49.63.32,1.28.45,1.95.39.68-.06,1.34-.33,1.99-.81.74-.55,1.23-1.19,1.47-1.93.23-.74.22-1.5-.03-2.28l-1.48.56Zm8.43-5.77l-1.5-1.42,2.1-2.23-1.03-.97-2.1,2.23-1.25-1.18,2.55-2.72-1.03-.97-3.59,3.82,5.85,5.51,3.59-3.82-1.03-.97-2.55,2.72Zm9.71-14.23c-.34-.22-.66-.34-.96-.36-.3-.02-.59.03-.85.13-.26.11-.5.24-.72.4-.21.16-.4.31-.56.46l-1.08.96c-.13.12-.27.23-.41.33-.15.1-.29.17-.44.2-.15.03-.3,0-.45-.1-.16-.1-.26-.25-.3-.43-.04-.19-.04-.39.02-.6.05-.22.15-.42.29-.62.14-.2.31-.36.51-.5.2-.13.42-.22.65-.26.24-.04.48,0,.73.09l.66-1.53c-.49-.17-.96-.22-1.41-.17-.45.06-.87.22-1.26.48-.39.26-.74.63-1.05,1.09-.3.46-.51.93-.61,1.4-.1.48-.08.93.07,1.35.15.42.45.78.9,1.08.32.21.62.33.9.36.28.03.54,0,.77-.07.23-.08.44-.18.62-.31s.33-.25.46-.35l1.66-1.41c.13-.1.24-.18.35-.24.11-.05.2-.08.29-.09.09,0,.17,0,.25.02.08.02.15.05.22.1.19.12.3.29.35.5.05.21.04.43-.03.67-.06.24-.16.46-.3.67-.24.37-.57.64-.97.8-.4.16-.82.15-1.27,0l-.67,1.46c.5.23,1,.32,1.49.28.5-.04.96-.21,1.4-.49.44-.29.82-.68,1.14-1.18.22-.34.4-.7.52-1.08.12-.38.18-.75.17-1.13,0-.37-.1-.72-.27-1.05-.17-.33-.44-.61-.8-.85Zm-75.03-38.69h-20.49v-32.17h19.78c6.56,0,10.32,3.16,10.32,8.66,0,4.01-2.52,5.97-4.02,6.77,3.06,1.3,4.93,4.17,4.93,7.62,0,5.62-4.03,9.11-10.53,9.11Zm-13.8-19.27h12.09c3.89,0,4.71-1.92,4.71-3.52,0-2.27-1.67-3.52-4.71-3.52h-12.09v7.04Zm13,13.38c2.83,0,4.58-1.47,4.58-3.83s-1.8-3.83-4.58-3.83h-13v7.66h13Zm23.66,5.89v-13.47h17.95v13.47h6.95v-32.17h0s-6.95,0-6.95,0v12.63h-17.95v-12.63h-6.95v32.17h6.95Zm10.59,17.98c-7.47-.92-8.97-1.43-8.97-3.52,0-1.79,1.59-3.7,7.11-3.7,5,0,9.15,1.77,11.39,4.85l.16.22,4.39-4.48-.11-.16c-2.77-3.89-8.85-6.41-15.5-6.41-8.51,0-14.22,4.16-14.22,10.34,0,6.7,6.2,8,13.11,8.84l.16.02c8.25.96,10.08,1.21,10.08,3.99,0,2.34-2.94,3.92-7.89,3.92-3.22,0-9.19-.81-13.01-6.26l-.17-.24-4.42,4.9.1.15c2.87,4.4,9.96,7.48,17.25,7.48,9.36,0,15.17-4.08,15.17-10.65,0-6.98-6.07-8.25-14.65-9.28Zm-22.09,5.98v-18.7h0s-6.95,0-6.95,0v12.63h-17.95v-12.63h-6.95v32.17h6.95v-13.47h17.95v13.47h6.95v-13.47ZM8,68.77c.18.37.26.83.23,1.38l-.21,3.56-8.02-.47.19-3.21c.03-.57.17-1.03.42-1.37.25-.34.55-.58.91-.72.36-.14.71-.2,1.06-.18.45.03.82.15,1.1.37.17.13.31.29.41.48.14-.31.35-.55.63-.71.37-.23.78-.33,1.23-.31.48.03.9.14,1.25.34.35.2.62.48.81.86Zm-4.74,1c-.05-.14-.14-.25-.26-.33-.12-.09-.28-.13-.47-.15-.25-.01-.46.05-.63.19-.18.14-.27.36-.29.65l-.1,1.65,1.72.1.1-1.65c0-.17-.01-.33-.06-.46Zm3.44-.1c-.08-.16-.19-.3-.35-.4-.15-.1-.34-.16-.55-.17-.19-.01-.36.02-.51.09-.15.07-.28.18-.37.33-.1.15-.15.35-.17.58l-.11,1.86,2.05.12.11-1.86c.01-.2-.02-.39-.1-.55Zm1.61-9.82l-2.01-.48.71-2.97-1.38-.33-.71,2.97-1.67-.4.87-3.63-1.38-.33-1.23,5.1,7.81,1.88,1.23-5.1-1.38-.33-.87,3.63Zm4.26-9.32l-7.34-3.26,1.37-3.1c.03-.07.08-.17.14-.28.06-.12.12-.22.18-.31.26-.41.57-.7.91-.89.35-.18.71-.27,1.11-.25.39.02.8.11,1.21.3.62.27,1.07.66,1.38,1.16.19.31.28.66.28,1.04l3.31-.12-.7,1.57-3.02.1-.69,1.55,2.49,1.1-.61,1.39Zm-2.35-5.76c-.08-.16-.18-.29-.31-.39-.13-.1-.26-.19-.39-.25-.13-.06-.28-.1-.45-.13-.17-.03-.33-.02-.5.03-.17.05-.32.16-.45.32-.05.06-.1.13-.14.22-.04.08-.08.16-.11.23l-.73,1.65,2.26,1,.73-1.65c.03-.07.06-.15.09-.24s.05-.17.06-.25c.03-.21.01-.39-.07-.55Zm8.81-6.63l-3.01-2.08,4.83-.56,1.09-1.58-5.38.63-1.36-5.02-1.05,1.53,1.32,4.62-3.05-2.1-.86,1.25,6.62,4.56.86-1.25Zm9.17-14.51c-.29-.29-.58-.47-.87-.55-.29-.08-.58-.09-.86-.04-.28.05-.54.13-.78.25-.24.11-.46.23-.64.33l-1.25.72c-.15.09-.31.17-.47.24-.16.07-.32.1-.48.1-.15,0-.29-.06-.42-.19-.13-.13-.2-.3-.21-.49,0-.19.04-.39.14-.59.1-.2.23-.38.41-.55.18-.17.37-.29.6-.39s.45-.13.69-.12c.24.01.47.09.7.23l.96-1.36c-.45-.26-.9-.41-1.35-.45-.45-.04-.9.03-1.33.21-.44.18-.85.46-1.25.85-.39.39-.68.8-.88,1.25-.2.45-.26.89-.2,1.33.06.44.28.86.67,1.24.27.27.54.45.81.54s.52.11.77.09c.24-.03.47-.09.67-.18.2-.09.38-.17.52-.25l1.91-1.05c.14-.08.27-.13.39-.16.11-.03.21-.04.3-.03.09,0,.17.03.24.07.07.04.14.08.19.14.16.16.24.34.24.56,0,.21-.05.43-.16.65-.11.22-.25.42-.43.6-.32.32-.68.51-1.11.58-.42.07-.84-.02-1.24-.26l-.95,1.29c.44.33.91.52,1.41.58.49.06.98,0,1.47-.2.49-.19.94-.5,1.36-.92.29-.29.53-.61.73-.95.2-.35.33-.7.4-1.07.07-.36.05-.72-.05-1.08-.1-.36-.3-.69-.61-.99Zm7.73-3.14l-1.86-2.74,2.97-2.02,1.86,2.74,1.26-.85-4.51-6.65-1.26.85,1.86,2.73-2.97,2.02-1.86-2.73-1.26.85,4.51,6.65,1.26-.85Zm11.55-6.65l-3.39-7.29-1.38.64,3.39,7.29,1.38-.64Zm6.24-2.51l-2.2-7.73,3.26-.93c.08-.02.18-.05.31-.08.13-.03.25-.05.35-.06.48-.06.9-.02,1.26.13.36.15.66.38.9.69s.42.69.55,1.12c.18.65.18,1.25,0,1.8-.12.34-.32.63-.62.88l2.21,2.47-1.65.47-2.02-2.26-1.63.47.75,2.62-1.46.42Zm-.36-6.78l.68,2.38,1.74-.5c.08-.02.16-.05.24-.08.09-.03.17-.07.23-.11.18-.11.31-.24.38-.4.07-.16.1-.32.1-.49s-.02-.32-.06-.46-.1-.28-.19-.43c-.09-.14-.2-.26-.34-.36-.14-.1-.32-.14-.53-.14-.08,0-.17,0-.26.03s-.17.04-.25.06l-1.74.5Zm17.73,3.46l-.14-1.41-3.71.36-.2-2.06,3.04-.3-.14-1.41-3.04.3-.17-1.71,3.71-.36-.14-1.41-5.22.51.78,8,5.22-.51Zm15.83-2.38l3.52.7-.64,3.25,1.49.3,1.56-7.89-1.49-.3-.64,3.24-3.52-.7.64-3.24-1.49-.3-1.56,7.89,1.49.3.64-3.25Zm11.56,6.55l-1.44-.59,5.32-6.51,2.1.86-.78,8.37-1.45-.59.16-1.75-2.8-1.15-1.11,1.36Zm2.04-2.5l2,.82.33-3.67-2.33,2.85Zm16.41,4.73l.76-1.2-5.57-3.52-.76,1.2,2.14,1.35-3.53,5.6,1.28.81,3.53-5.6,2.14,1.35Zm6,13.71l5.47-5.89-1.11-1.03-2.25,2.42-2.63-2.45,2.25-2.42-1.11-1.03-5.47,5.89,1.11,1.03,2.26-2.43,2.63,2.45-2.26,2.43,1.11,1.03Zm4,4.47l7.94-2.76,1.34,1.83-5.04,6.72-.92-1.26,1.05-1.41-1.78-2.45-1.65.58-.92-1.26Zm5.24,1.94l2.2-2.96-3.47,1.21,1.27,1.74Zm3.04,11.19l5.58-.84-4.29,3.67.62,1.36,8.28-1.2-.66-1.45-5.65.92,4.4-3.67-.67-1.45-5.64.92,4.4-3.67-.66-1.45-6.33,5.48.62,1.36Zm13.06,13.5l-7.28,4.19-.35-1.52,1.52-.88-.68-2.95-1.74-.12-.35-1.52,8.38.6.51,2.21Zm-4.83,1.04l3.19-1.85-3.67-.26.48,2.1Zm-1.69,10.44l.08,1.54,3.26-.17,4.9,2.5-.09-1.77-3.11-1.59,2.93-1.89-.09-1.77-4.62,2.98-3.26.17ZM6.04,92.95c-1.21,0-2.18.98-2.18,2.18s.98,2.18,2.18,2.18,2.18-.98,2.18-2.18-.98-2.18-2.18-2.18Zm137.79,0c-1.21,0-2.18.98-2.18,2.18s.98,2.18,2.18,2.18,2.18-.98,2.18-2.18-.98-2.18-2.18-2.18Z"/></svg>