<svg xmlns:xlink="http://www.w3.org/1999/xlink" version="1.1" xmlns="http://www.w3.org/2000/svg"
  class="community"
  role="img"
  aria-hidden="true"
  tabindex="-1"
  viewBox="0 0 62 43">
  <g fill="#3A3A3A" fill-rule="nonzero">
    <path d="M20.042 29.25c-.377.318-.739.652-1.086 1H.5v-.5c0-6.83 4.453-12.76 10.8-14.775a8 8 0 1 1 9.4 0c.785.25 1.547.562 2.28.932-.18.28-.344.571-.493.871a14.395 14.395 0 0 0-3.136-1.139l-1.305-.309 1.19-.62a7 7 0 1 0-6.47 0l1.188.62-1.305.31a14.506 14.506 0 0 0-11.14 13.61h18.533zm2.612.535v.465h-.655c.214-.16.432-.316.655-.465zm2.05-12.862l.05.034-.444.648c.12-.235.251-.462.394-.682zM41.958 29.25h18.533a14.506 14.506 0 0 0-11.14-13.61l-1.305-.31 1.19-.62a7 7 0 1 0-6.47 0l1.188.62-1.305.31c-1.09.257-2.142.64-3.136 1.138-.15-.3-.314-.59-.492-.871.732-.37 1.494-.682 2.28-.932a8 8 0 1 1 9.4 0A15.509 15.509 0 0 1 61.499 29.75v.5H43.044a17.047 17.047 0 0 0-1.086-1zM37.59 17.416l-.323-.473.029-.02c.104.16.202.325.294.493zm2.411 12.834h-.787v-.553c.268.176.531.36.787.553z"/>
    <path d="M23 21a8 8 0 1 1 12.7 6.475A15.509 15.509 0 0 1 46.5 42.25v.5h-31v-.5c0-6.83 4.453-12.76 10.8-14.775A7.994 7.994 0 0 1 23 21zm11.351 7.14l-1.305-.31 1.19-.62a7 7 0 1 0-6.47 0l1.188.62-1.305.31a14.506 14.506 0 0 0-11.14 13.61H45.49a14.506 14.506 0 0 0-11.14-13.61z"/>
  </g>
</svg>