<svg xmlns:xlink="http://www.w3.org/1999/xlink" version="1.1" xmlns="http://www.w3.org/2000/svg"
     class="heart-empty"
     role="img"
     aria-hidden="true"
     tabindex="-1"
     viewBox="0 0 24 21">
    <path d="M6.853 0C4.865 0 2.979.903 1.678 2.48.478 3.93-.112 5.787.018 7.705c.128 1.918.96 3.668 2.342 4.928l.274.25 8.55 7.797c.234.213.526.32.816.32.29 0 .583-.107.816-.32l8.55-7.798.273-.249c1.382-1.26 2.215-3.01 2.344-4.928.128-1.918-.461-3.774-1.66-5.226C21.02.904 19.134 0 17.146 0a6.661 6.661 0 0 0-4.488 1.761L12 2.364l-.659-.602A6.66 6.66 0 0 0 6.853 0m0 1.309c1.302 0 2.61.474 3.671 1.441L12 4.096l1.475-1.346a5.43 5.43 0 0 1 3.673-1.441c1.567 0 3.126.687 4.234 2.029 2.03 2.456 1.779 6.175-.559 8.307l-.273.25L12 19.692l-8.55-7.798-.273-.25C.839 9.513.589 5.793 2.618 3.337 3.727 1.995 5.285 1.308 6.853 1.31"
          fill="#4A4A4A"/>
</svg>
