<svg version="1.1" xmlns="http://www.w3.org/2000/svg" xmlns:xlink="http://www.w3.org/1999/xlink"
     class="saved-properties"
     role="img"
     aria-hidden="true"
     tabindex="-1"
     viewBox="0 0 16 14">
    <path d="M4.997.5c1.087 0 2.137.412 2.956 1.159L8 1.702l.048-.044A4.386 4.386 0 0 1 11.003.5c1.31 0 2.55.595 3.404 1.628a4.81 4.81 0 0 1 1.082 3.4 4.75 4.75 0 0 1-1.53 3.21l-.158.146-4.987 4.548a1.204 1.204 0 0 1-1.627 0L2.2 8.885l-.16-.146a4.749 4.749 0 0 1-1.528-3.21 4.807 4.807 0 0 1 1.082-3.4A4.414 4.414 0 0 1 4.997.5zM2.364 2.765A3.807 3.807 0 0 0 1.51 5.46 3.75 3.75 0 0 0 2.714 8l.16.145 4.987 4.55c.041.036.09.055.14.055.048 0 .097-.019.138-.056l4.988-4.549.159-.145A3.75 3.75 0 0 0 14.49 5.46a3.81 3.81 0 0 0-.855-2.696A3.416 3.416 0 0 0 11.003 1.5c-.836 0-1.646.318-2.281.897L8 3.056l-.337-.308-.384-.35A3.385 3.385 0 0 0 4.997 1.5c-1.009 0-1.968.46-2.633 1.265z"
          fill="currentColor" fill-rule="nonzero"/>
</svg>
