<svg id="ico-share" xmlns="http://www.w3.org/2000/svg" width="23.001" height="20" viewBox="0 0 23.001 20">
  <path id="share_icon_new" d="M33.07,34.984H14.49a.49.49,0,0,1-.49-.49V16a.49.49,0,0,1,.49-.49H26.22a.49.49,0,0,1,.49.49.48.48,0,0,1-.49.48H15V33.985H32.6V26.231a.5.5,0,0,1,1,0v8.264a.49.49,0,0,1-.53.49ZM37,18.9a.49.49,0,0,1-.21.4L31.9,22.714a.46.46,0,0,1-.28.08.42.42,0,0,1-.22-.05.47.47,0,0,1-.27-.43V19.387h0A12.225,12.225,0,0,0,18.9,31.577a.47.47,0,0,1-.48.48.48.48,0,0,1-.49-.48,13.2,13.2,0,0,1,13.2-13.17h0V15.49a.47.47,0,0,1,.27-.43.46.46,0,0,1,.5,0l4.89,3.407a.489.489,0,0,1,.21.43Zm-1.34,0-3.55-2.478v5Z" transform="translate(-14 -14.986)" fill="#552448"/>
</svg>
