<?xml version="1.0" encoding="UTF-8"?><!DOCTYPE svg PUBLIC "-//W3C//DTD SVG 1.1//EN" "http://www.w3.org/Graphics/SVG/1.1/DTD/svg11.dtd"><svg xmlns="http://www.w3.org/2000/svg" xmlns:xlink="http://www.w3.org/1999/xlink"><defs><style>.a{fill:none;stroke:#3a3a3a;stroke-linecap:round;stroke-linejoin:round;stroke-width:1.5px}</style><style>.a{fill:none;stroke:#3a3a3a;stroke-linecap:round;stroke-linejoin:round;stroke-width:1.5px}</style><style>.a{fill:#552448}</style><style>.cls-1{fill:#3a3a3a}</style><style>.cls-1{fill:#3a3a3a}</style><rect id="path-1" width="30" height="30" rx="15"/><style>.cls-1{fill:#3a3a3a}</style><rect id="path-1" width="30" height="30" rx="15"/><style>.cls-1{fill:#3a3a3a}</style><style>.cls-1{fill:#3a3a3a}</style><path id="path-1" d="M1 14.713h12.622v.202H1z"/><style>.cls-1{fill:#3a3a3a}</style><path d="M15 0c8.284 0 15 6.716 15 15 0 8.284-6.716 15-15 15-8.284 0-15-6.716-15-15C0 6.716 6.716 0 15 0z" id="path-1"/><path d="M14.946 7.579V7.6c-.49 0-.981-.013-1.47.003-.966.031-1.937.033-2.897.13-1.457.148-2.456 1.063-2.748 2.494-.121.596-.156 1.215-.169 1.825a135.158 135.158 0 0 0-.02 4.241c.012.988.03 1.981.129 2.963.145 1.455 1.06 2.453 2.494 2.746.59.121 1.205.16 1.81.17 1.663.024 3.328.03 4.992.011.817-.01 1.644-.032 2.45-.158 1.283-.2 2.134-.962 2.504-2.224.19-.651.21-1.326.215-1.996.016-1.755.025-3.51.007-5.266-.008-.734-.042-1.475-.153-2.199-.167-1.095-.764-1.91-1.808-2.356-.538-.23-1.11-.315-1.691-.33-1.215-.032-2.43-.052-3.645-.076M6 14.896c.032-1.302.046-2.604.101-3.904.047-1.082.32-2.106.98-2.993.767-1.03 1.814-1.605 3.065-1.828.975-.175 1.962-.168 2.946-.17 1.694-.005 3.388.009 5.08.03.864.01 1.722.085 2.538.4 1.625.625 2.59 1.817 2.941 3.501.11.527.16 1.073.175 1.612.067 2.432.094 4.865-.03 7.296-.054 1.07-.33 2.08-.982 2.957-.768 1.03-1.812 1.608-3.063 1.83-.98.175-1.974.169-2.965.171-1.687.004-3.375-.01-5.062-.03-.845-.01-1.686-.085-2.488-.384-1.595-.595-2.585-1.736-2.955-3.382-.138-.616-.191-1.258-.21-1.89-.034-1.071-.01-2.144-.01-3.216H6m11.923.01a2.974 2.974 0 1 0-5.948-.024 2.974 2.974 0 0 0 5.948.024m-2.975-4.576a4.563 4.563 0 0 1 4.578 4.568 4.564 4.564 0 0 1-4.576 4.57A4.566 4.566 0 0 1 10.37 14.9a4.565 4.565 0 0 1 4.577-4.57zm5.835-.18a1.08 1.08 0 0 1-1.077 1.065 1.08 1.08 0 0 1-1.067-1.074 1.08 1.08 0 0 1 1.077-1.066 1.079 1.079 0 0 1 1.067 1.075z" id="path-3"/><rect id="path-1" width="30" height="30" rx="15"/><rect id="path-1" width="30" height="30" rx="15"/><rect id="path-1" width="30" height="30" rx="15"/></defs><symbol id="UI-Pagination-Arrow-LG-Previous" viewBox="0 0 31.811 62.121"><path class="a" d="M30.75 61.061l-30-30 30-30"/></symbol><symbol id="UI_Pagination_Arrow-LG-Next" viewBox="0 0 31.811 62.121"><path class="a" d="M1.061 1.061l30 30-30 30"/></symbol><symbol id="arrow-down-darkgray" viewBox="0 0 12 7"><title>UI/Carrot/Collapse/DarkGray Copy</title><path d="M.735.671h10.558l-5.279 5.99z" fill="#3A3A3A" fill-rule="evenodd"/></symbol><symbol id="arrow-down-gray" viewBox="0 0 12 7"><title>UI/Carrot/Collapse/DarkGray Copy 3</title><path d="M.735.671h10.558l-5.279 5.99z" fill="#AAA" fill-rule="evenodd"/></symbol><symbol id="arrow-down-white" viewBox="0 0 12 7"><title>UI/Carrot/Collapse/DarkGray Copy</title><path d="M.735.671h10.558l-5.279 5.99z" fill="#FFF" fill-rule="evenodd"/></symbol><symbol id="arrow-up-darkgray" viewBox="0 0 12 7"><title>UI/Carrot/Collapse/DarkGray</title><path d="M.735 6.66h10.558L6.014.672z" fill="#3A3A3A" fill-rule="evenodd"/></symbol><symbol id="arrow-up-gray" viewBox="0 0 12 7"><title>UI/Carrot/Collapse/DarkGray Copy 2</title><path d="M.735 6.66h10.558L6.014.672z" fill="#AAA" fill-rule="evenodd"/></symbol><symbol id="calculator" viewBox="0 0 25 33"><style>.st0{fill:#3a3a3a}</style><title>icon-estimate</title><g transform="translate(-339 -2102)" id="Page-1"><g id="And-we-know-how-to-sell-them" transform="translate(90 1720)"><g id="Point" transform="translate(235 372.334)"><g id="icon-estimate" transform="translate(14 10)"><path class="st0" d="M25 32.4H0V0h25v32.4zm-24-1h23V1H1v30.4z" id="Rectangle"/><path class="st0" d="M21.3 10.2H3.7V3.7h17.6v6.5zm-16.6-1h15.6V4.7H4.7v4.5zM8.3 16.7H3.7V12h4.6v4.7zm-3.6-1h2.6V13H4.7v2.7zM8.3 23.1H3.7v-4.6h4.6v4.6zm-3.6-1h2.6v-2.6H4.7v2.6zM8.3 29.6H3.7V25h4.6v4.6zm-3.6-1h2.6V26H4.7v2.6zM14.8 16.7h-4.6V12h4.6v4.7zm-3.6-1h2.6V13h-2.6v2.7zM14.8 23.1h-4.6v-4.6h4.6v4.6zm-3.6-1h2.6v-2.6h-2.6v2.6zM14.8 29.6h-4.6V25h4.6v4.6zm-3.6-1h2.6V26h-2.6v2.6zM21.3 16.7h-4.6V12h4.6v4.7zm-3.6-1h2.6V13h-2.6v2.7zM21.3 29.6h-4.6V18.5h4.6v11.1zm-3.6-1h2.6v-9.1h-2.6v9.1z"/></g></g></g></g></symbol><symbol id="calendly" viewBox="0 0 23 23"><path class="a" d="M20.5 12h-3a.5.5 0 0 0-.5.5v3a.5.5 0 0 0 .5.5h3a.5.5 0 0 0 .5-.5v-3a.5.5 0 0 0-.5-.5zm-.5 3h-2v-2h2zm-4.5-3h-3a.5.5 0 0 0-.5.5v3a.5.5 0 0 0 .5.5h3a.5.5 0 0 0 .5-.5v-3a.5.5 0 0 0-.5-.5zm-.5 3h-2v-2h2zm-4.5-3h-3a.5.5 0 0 0-.5.5v3a.5.5 0 0 0 .5.5h3a.5.5 0 0 0 .5-.5v-3a.5.5 0 0 0-.5-.5zm-.5 3H8v-2h2zm-4.5-3h-3a.5.5 0 0 0-.5.5v3a.5.5 0 0 0 .5.5h3a.5.5 0 0 0 .5-.5v-3a.5.5 0 0 0-.5-.5zM5 15H3v-2h2zm15.5-8h-3a.5.5 0 0 0-.5.5v3a.5.5 0 0 0 .5.5h3a.5.5 0 0 0 .5-.5v-3a.5.5 0 0 0-.5-.5zm-.5 3h-2V8h2zm-4.5-3h-3a.5.5 0 0 0-.5.5v3a.5.5 0 0 0 .5.5h3a.5.5 0 0 0 .5-.5v-3a.5.5 0 0 0-.5-.5zm-.5 3h-2V8h2zm-4.5-3h-3a.5.5 0 0 0-.5.5v3a.5.5 0 0 0 .5.5h3a.5.5 0 0 0 .5-.5v-3a.5.5 0 0 0-.5-.5zm-.5 3H8V8h2zm5.5 7h-3a.5.5 0 0 0-.5.5v3a.5.5 0 0 0 .5.5h3a.5.5 0 0 0 .5-.5v-3a.5.5 0 0 0-.5-.5zm-.5 3h-2v-2h2zm-4.5-3h-3a.5.5 0 0 0-.5.5v3a.5.5 0 0 0 .5.5h3a.5.5 0 0 0 .5-.5v-3a.5.5 0 0 0-.5-.5zm-.5 3H8v-2h2zm-4.5-3h-3a.5.5 0 0 0-.5.5v3a.5.5 0 0 0 .5.5h3a.5.5 0 0 0 .5-.5v-3a.5.5 0 0 0-.5-.5zM5 20H3v-2h2zM22.5 1H21V.5a.5.5 0 0 0-1 0V1h-2V.5a.5.5 0 0 0-1 0V1h-2V.5a.5.5 0 0 0-1 0V1h-2V.5a.5.5 0 0 0-1 0V1H9V.5a.5.5 0 0 0-1 0V1H6V.5a.5.5 0 0 0-1 0V1H3V.5a.5.5 0 0 0-1 0V1H.5a.5.5 0 0 0-.5.5v21a.5.5 0 0 0 .5.5h22a.5.5 0 0 0 .5-.5v-21a.5.5 0 0 0-.5-.5zM22 22H1V2h1v.5a.5.5 0 0 0 1 0V2h2v.5a.5.5 0 0 0 1 0V2h2v.5a.5.5 0 0 0 1 0V2h2v.5a.5.5 0 0 0 1 0V2h2v.5a.5.5 0 0 0 1 0V2h2v.5a.5.5 0 0 0 1 0V2h2v.5a.5.5 0 0 0 1 0V2h1z"/></symbol><symbol id="carousel-chevron-left-white" viewBox="0 0 13 21"><title>UI/Arrow/Black Copy</title><path d="M11.773 20L2 10.644 12 1" stroke="#FFF" stroke-width="1.5" fill="none" fill-rule="evenodd"/></symbol><symbol id="carousel-chevron-right-white" viewBox="0 0 13 21"><title>UI/Arrow/Black</title><path d="M1.227 1L11 10.356 1 20" stroke="#FFF" stroke-width="1.5" fill="none" fill-rule="evenodd"/></symbol><symbol id="carrot" viewBox="0 0 12 20"><title>path-1</title><path d="M9.438 9.9L.77 1.602A.75.75 0 0 1 1.808.52l9.795 9.377L1.581 19.56a.75.75 0 0 1-1.041-1.08L9.438 9.9z" fill="#3A3A3A" fill-rule="nonzero"/></symbol><symbol id="checkmark" viewBox="0 0 14 10"><title>Path 9</title><path d="M1 5.233L5.314 10l7.637-10" fill-rule="nonzero" stroke="#979797" fill="none"/></symbol><symbol id="chevron-left-sq" viewBox="0 0 35 35"><title>Group 2 Copy</title><g fill="none" fill-rule="evenodd"><path d="M21.019 9.8L13.2 17.285l8 7.715" stroke="#3A3A3A" stroke-width="1.2"/><path stroke="#DADBDC" d="M34.5.5H.5v34h34z"/></g></symbol><symbol id="chevron-left" viewBox="0 0 13 21"><title>UI/Arrow/Black Copy</title><path d="M11.773 20L2 10.644 12 1" stroke="#3A3A3A" stroke-width="1.5" fill="none" fill-rule="evenodd"/></symbol><symbol id="chevron-right-sq" viewBox="0 0 35 35"><title>Group 2</title><g fill="none" fill-rule="evenodd"><path d="M13.981 9.8l7.819 7.485-8 7.715" stroke="#3A3A3A" stroke-width="1.2"/><path stroke="#DADBDC" d="M.5.5h34v34H.5z"/></g></symbol><symbol id="chevron-right-white" viewBox="0 0 10 18"><path d="M7.865 8.917L.642 2.002a.625.625 0 0 1 .864-.903L9.67 8.913l-8.351 8.055a.625.625 0 0 1-.868-.9l7.415-7.151z" fill="#fff"/></symbol><symbol id="chevron-right" viewBox="0 0 13 21"><title>UI/Arrow/Black</title><path d="M1.227 1L11 10.356 1 20" stroke="#3A3A3A" stroke-width="1.5" fill="none" fill-rule="evenodd"/></symbol><symbol id="close-x-white" viewBox="0 0 22 22"><title>UI/Close/Black</title><g fill="#FFF" fill-rule="evenodd"><rect transform="rotate(45 11 11)" x="-3" y="10" width="28" height="2" rx="1"/><rect transform="rotate(-45 11 11)" x="-3" y="10" width="28" height="2" rx="1"/></g></symbol><symbol id="close-x" viewBox="0 0 22 22"><title>UI/Close/Black</title><g fill="#3A3A3A" fill-rule="evenodd"><rect transform="rotate(45 11 11)" x="-3" y="10" width="28" height="2" rx="1"/><rect transform="rotate(-45 11 11)" x="-3" y="10" width="28" height="2" rx="1"/></g></symbol><symbol id="commercial" viewBox="0 0 128 128"><title>commercial</title><g id="Layer_2" data-name="Layer 2"><g id="Layer_1-2" data-name="Layer 1"><path class="cls-1" d="M126 124h-8V23a2.13 2.13 0 0 0 0-.25.61.61 0 0 0 0-.14.88.88 0 0 0 0-.15 1.89 1.89 0 0 0-.5-.85.81.81 0 0 0-.1-.09 1.56 1.56 0 0 0-.2-.16h-.08l-.27-.14-52-21h-.13a1.09 1.09 0 0 0-.35-.22 2.13 2.13 0 0 0-.25 0h-.54l-.18.1a2 2 0 0 0-.53.24 2.1 2.1 0 0 0-.41.38l-.13.17a.33.33 0 0 0-.06.1 1.19 1.19 0 0 0-.13.25v.12a1 1 0 0 0-.07.25 2 2 0 0 0 0 .24L62 2v19H12a2 2 0 0 0-2 2v101H2a2 2 0 0 0 0 4h124a2 2 0 0 0 0-4zM66 23.14V23 5l48 19.38V94H94a2 2 0 0 0-2 2v28H66zM96 98h18v26H96zm-34 26H36V96.35a1.84 1.84 0 0 0 0-.35 2 2 0 0 0-2-2H14V25h48zM14 98h18v26H14z"/><path class="cls-1" d="M56 79H20a2 2 0 0 0 0 4h36a2 2 0 0 0 0-4zM20 68h36a2 2 0 0 0 0-4H20a2 2 0 0 0 0 4zM20 53h36a2 2 0 0 0 0-4H20a2 2 0 0 0 0 4zM20 38h36a2 2 0 0 0 0-4H20a2 2 0 0 0 0 4zM108 83a2 2 0 0 0 0-4H72a2 2 0 0 0 0 4zM72 68h36a2 2 0 0 0 0-4H72a2 2 0 0 0 0 4zM72 53h36a2 2 0 0 0 0-4H72a2 2 0 0 0 0 4zM72 38h36a2 2 0 0 0 0-4H72a2 2 0 0 0 0 4z"/></g></g></symbol><symbol id="community" viewBox="0 0 62 43"><title>icon-community-outlined@3x</title><g fill="#3A3A3A" fill-rule="nonzero"><path d="M20.042 29.25c-.377.318-.739.652-1.086 1H.5v-.5c0-6.83 4.453-12.76 10.8-14.775a8 8 0 1 1 9.4 0c.785.25 1.547.562 2.28.932-.18.28-.344.571-.493.871a14.395 14.395 0 0 0-3.136-1.139l-1.305-.309 1.19-.62a7 7 0 1 0-6.47 0l1.188.62-1.305.31a14.506 14.506 0 0 0-11.14 13.61h18.533zm2.612.535v.465h-.655c.214-.16.432-.316.655-.465zm2.05-12.862l.05.034-.444.648c.12-.235.251-.462.394-.682zM41.958 29.25h18.533a14.506 14.506 0 0 0-11.14-13.61l-1.305-.31 1.19-.62a7 7 0 1 0-6.47 0l1.188.62-1.305.31c-1.09.257-2.142.64-3.136 1.138-.15-.3-.314-.59-.492-.871.732-.37 1.494-.682 2.28-.932a8 8 0 1 1 9.4 0A15.509 15.509 0 0 1 61.499 29.75v.5H43.044a17.047 17.047 0 0 0-1.086-1zM37.59 17.416l-.323-.473.029-.02c.104.16.202.325.294.493zm2.411 12.834h-.787v-.553c.268.176.531.36.787.553z"/><path d="M23 21a8 8 0 1 1 12.7 6.475A15.509 15.509 0 0 1 46.5 42.25v.5h-31v-.5c0-6.83 4.453-12.76 10.8-14.775A7.994 7.994 0 0 1 23 21zm11.351 7.14l-1.305-.31 1.19-.62a7 7 0 1 0-6.47 0l1.188.62-1.305.31a14.506 14.506 0 0 0-11.14 13.61H45.49a14.506 14.506 0 0 0-11.14-13.61z"/></g></symbol><symbol id="condo-townhouse" viewBox="0 0 128 128"><title>condo-townhouse</title><g id="Layer_2" data-name="Layer 2"><g id="Layer_1-2" data-name="Layer 1"><path class="cls-1" d="M126 124h-6V39.49v-.12-.12a2.3 2.3 0 0 0-.06-.28.14.14 0 0 0 0-.07 1.66 1.66 0 0 0-.12-.31 1.53 1.53 0 0 0-.19-.3 2.2 2.2 0 0 0-.26-.27 2.11 2.11 0 0 0-.31-.21 3.92 3.92 0 0 0-.36-.16L74.41 23.5V2.41a1.84 1.84 0 0 0 0-.41 2 2 0 0 0-2-2H10a2 2 0 0 0-2 2v122H2a2 2 0 0 0 0 4h124a2 2 0 0 0 0-4zm-10-83v83H74.41V27.7zM12 4h58.41v120H54.53V98h1.73a2 2 0 1 0 0-4h-30a2 2 0 0 0 0 4H28v26H12zm38.53 94v26H32V98z"/><path class="cls-1" d="M28.14 83.72a2 2 0 0 0 0-4h-8v-8a2 2 0 0 0-4 0v10a2 2 0 0 0 2 2h10zM36.29 83.72h10a2 2 0 0 0 0-4h-8v-8a2 2 0 0 0-4 0v10a2 2 0 0 0 2 2zM18.14 63.09h10a2 2 0 0 0 0-4h-8v-8a2 2 0 0 0-4 0v10a2 2 0 0 0 2 2zM36.29 63.09h10a2 2 0 0 0 0-4h-8v-8a2 2 0 0 0-4 0v10a2 2 0 0 0 2 2zM18.14 42.46h10a2 2 0 0 0 0-4h-8v-8a2 2 0 0 0-4 0v10a2 2 0 0 0 2 2zM36.29 42.46h10a2 2 0 0 0 0-4h-8v-8a2 2 0 0 0-4 0v10a2 2 0 0 0 2 2zM54.44 83.72h10a2 2 0 0 0 0-4h-8v-8a2 2 0 0 0-4 0v10a2 2 0 0 0 2 2zM54.44 63.09h10a2 2 0 0 0 0-4h-8v-8a2 2 0 0 0-4 0v10a2 2 0 0 0 2 2zM82.27 83.72h26a2 2 0 1 0 0-4h-24v-8a2 2 0 0 0-4 0v10a2 2 0 0 0 2 2zM82.27 63.09h26a2 2 0 1 0 0-4h-24v-8a2 2 0 0 0-4 0v10a2 2 0 0 0 2 2zM54.44 42.46h10a2 2 0 0 0 0-4h-8v-8a2 2 0 0 0-4 0v10a2 2 0 0 0 2 2zM18.14 21.82h10a2 2 0 0 0 0-4h-8v-8a2 2 0 0 0-4 0v10a2 2 0 0 0 2 2zM36.29 21.82h10a2 2 0 0 0 0-4h-8v-8a2 2 0 0 0-4 0v10a2 2 0 0 0 2 2zM54.44 21.82h10a2 2 0 0 0 0-4h-8v-8a2 2 0 1 0-4 0v10a2 2 0 0 0 2 2zM82.27 104.4h26a2 2 0 1 0 0-4h-24v-8a2 2 0 0 0-4 0v10a2 2 0 0 0 2 2z"/></g></g></symbol><symbol id="envelope-dark" viewBox="0 0 24 16"><path d="M21.856 1.25H2.144L12 9.735l9.856-8.485zm.944.809l-6.73 5.793 6.73 6.067V2.059zm-7.668 6.6l-2.706 2.33-.346.436-.08-.069-.08.07-.346-.437-2.706-2.33-6.756 6.091h19.776l-6.756-6.09zM1.2 2.06v11.86l6.73-6.067L1.2 2.06zM0 0h24v16H0V0z" fill="#4A4A4A" fill-rule="nonzero"/></symbol><symbol id="envelope" viewBox="0 0 24 16"><path d="M21.856 1.25H2.144L12 9.735l9.856-8.485zm.944.809l-6.73 5.793 6.73 6.067V2.059zm-7.668 6.6l-2.706 2.33-.346.436-.08-.069-.08.07-.346-.437-2.706-2.33-6.756 6.091h19.776l-6.756-6.09zM1.2 2.06v11.86l6.73-6.067L1.2 2.06zM0 0h24v16H0V0z" fill="#AAA" fill-rule="nonzero"/></symbol><symbol id="equal-housing" viewBox="0 0 40 30"><title>UI/EqualHousing</title><path d="M13.303 17.454v-3.536h13.465v3.536H13.303zm0 5.266v-3.536h13.465v3.536H13.303zM20.226 0L0 11.521v4.163h3.099V30h33.746V15.684H40v-4.049L20.226 0zM7.21 11.98l13.014-7.642 12.733 7.643v14.372H7.21V11.981z" fill="#3A3A3A" fill-rule="evenodd"/></symbol><symbol id="error" viewBox="0 0 24 24"><title>error</title><path d="M12 23c6.075 0 11-4.925 11-11S18.075 1 12 1 1 5.925 1 12s4.925 11 11 11zm0 1C5.373 24 0 18.627 0 12S5.373 0 12 0s12 5.373 12 12-5.373 12-12 12zm0-5a1 1 0 1 1 0-2 1 1 0 0 1 0 2zm.032-14.318c.376 0 .682.305.682.682V14a.682.682 0 1 1-1.364 0V5.364c0-.377.305-.682.682-.682z" fill="currentColor" fill-rule="nonzero"/></symbol><symbol id="estimate" viewBox="0 0 44 37"><g transform="rotate(30 14.214 8.331)" stroke="#3A3A3A" fill="none" fill-rule="evenodd"><path d="M12.177 23.18h31.19a.5.5 0 0 0 .5-.5V1.375a.5.5 0 0 0-.5-.5h-31.19L1.064 11.669l-.01.01a.5.5 0 0 0 .01.707L12.177 23.18z"/><circle cx="10.796" cy="12.721" r="2.589"/></g></symbol><symbol id="expand-arrow" viewBox="0 0 7 7"><title>icon-expand</title><g stroke="currentColor" fill="none" fill-rule="evenodd"><path d="M.757 6.243L5 2" stroke-linecap="square"/><path d="M1.5.793h5v5"/></g></symbol><symbol id="expand" viewBox="0 0 22 22"><title>Expand</title><path d="M21.093.022L15.13 0l-.01 1.824 3.768.011-7.873 7.87-7.873-7.87 3.748.011V.011L.918 0A.873.873 0 0 0 .28.27.923.923 0 0 0 0 .918l.01 5.97h1.837V3.13L9.72 11l-7.873 7.87v-3.757H.01L0 21.083c.008.254.101.47.28.647.18.178.396.264.649.26H6.89l-.011-1.847-3.737.022 7.873-7.87 7.873 7.87-3.769.01.01 1.825 5.963-.021a.861.861 0 0 0 .648-.26.87.87 0 0 0 .259-.647v-5.959l-1.836.022.01 3.724L12.313 11l7.863-7.859-.011 3.725L22 6.887V.928a.87.87 0 0 0-.26-.647.861.861 0 0 0-.647-.26" fill="#3A3A3A" fill-rule="evenodd"/></symbol><symbol id="facebook-circle" viewBox="0 0 30 30"><title>UI/Social/Facebook</title><g fill="none" fill-rule="evenodd"><g><mask id="mask-2" fill="#fff"><use xlink:href="#path-1"/></mask><g mask="url(#mask-2)" fill="#3A3A3A"><path d="M0 0h30v30H0z"/></g></g><path d="M13.06 23.377v-8.026H10.4v-3.127h2.66V9.917c0-2.677 1.611-4.134 3.963-4.134a21.5 21.5 0 0 1 2.377.123v2.797l-1.63.001c-1.28 0-1.528.617-1.528 1.523v1.997h3.051l-.397 3.127h-2.654v8.026" fill="#FFF"/></g></symbol><symbol id="facebook" viewBox="0 0 10 19"><title>UI/Social/Facebook Copy 4</title><path d="M3.06 18.377v-8.026H.4V7.224h2.66V4.917C3.06 2.24 4.672.783 7.024.783A21.5 21.5 0 0 1 9.4.906v2.797l-1.63.001c-1.28 0-1.528.617-1.528 1.523v1.997h3.051l-.397 3.127H6.242v8.026" fill="#3A3A3A" fill-rule="evenodd"/></symbol><symbol id="farm-ranch" viewBox="0 0 128 128"><title>farm-ranch</title><g id="Layer_2" data-name="Layer 2"><g id="Layer_1-2" data-name="Layer 1"><path class="cls-1" d="M126 106.61h-10V55a2 2 0 0 0-4 0v51.61H96V68a2.09 2.09 0 0 0 0-.35 2.4 2.4 0 0 0-.12-.38v-.06a2.5 2.5 0 0 0-.21-.35 1.43 1.43 0 0 0-.2-.23l-.1-.08-.2-.16-.17-.09a1 1 0 0 0-.18-.09 1.17 1.17 0 0 0-.2-.06H54.9a1.33 1.33 0 0 0-.28 0h-.16l-.22.07a1.4 1.4 0 0 0-.17.09l-.17.09-.21.17-.09.07a1.86 1.86 0 0 0-.23.26 2.21 2.21 0 0 0-.18.34 2.65 2.65 0 0 0-.12.37.28.28 0 0 1 0 .09 3 3 0 0 0-.07.3v38.61H37V55a2 2 0 0 0-4 0v51.61H14V25h32a2 2 0 0 0 0-4H14.11A19 19 0 0 1 52 23a2 2 0 0 0 4 0 23 23 0 0 0-46 0v83.61H2a2 2 0 0 0 0 4h124a2 2 0 0 0 0-4zm-34-3.53L77.29 88 92 72.92zm-17.5-18L59.74 70h29.52zM71.71 88L57 103.08V72.92zm2.79 2.87l15.35 15.74h-30.7z"/><path class="cls-1" d="M74.43 19.09l-.19.07h-.06l-40 18a1.34 1.34 0 0 0-.23.13.41.41 0 0 0-.11.07l-.15.13-.15.13-.07.11a1.06 1.06 0 0 0-.16.21l-10 17a2 2 0 0 0 .69 2.78 1.93 1.93 0 0 0 1 .28 2 2 0 0 0 1.72-1l9.68-16.44L75 23.19l38.6 17.37L123.28 57a2 2 0 0 0 1.72 1 1.93 1.93 0 0 0 1-.28 2 2 0 0 0 .71-2.73l-10-17a1 1 0 0 0-.15-.2.94.94 0 0 0-.09-.12l-.12-.12-.17-.14a.53.53 0 0 0-.1-.06 1 1 0 0 0-.24-.14l-40-18h-.06l-.19-.07-.21-.14h-.76zM100 113a2 2 0 0 0-2 2v11a2 2 0 0 0 4 0v-11a2 2 0 0 0-2-2zM124 113a2 2 0 0 0-2 2v11a2 2 0 0 0 4 0v-11a2 2 0 0 0-2-2zM112 113a2 2 0 0 0-2 2v11a2 2 0 0 0 4 0v-11a2 2 0 0 0-2-2zM88 113a2 2 0 0 0-2 2v11a2 2 0 0 0 4 0v-11a2 2 0 0 0-2-2zM76 113a2 2 0 0 0-2 2v11a2 2 0 0 0 4 0v-11a2 2 0 0 0-2-2zM64 113a2 2 0 0 0-2 2v11a2 2 0 0 0 4 0v-11a2 2 0 0 0-2-2zM52 113a2 2 0 0 0-2 2v11a2 2 0 0 0 4 0v-11a2 2 0 0 0-2-2zM40 113a2 2 0 0 0-2 2v11a2 2 0 0 0 4 0v-11a2 2 0 0 0-2-2zM28 113a2 2 0 0 0-2 2v11a2 2 0 0 0 4 0v-11a2 2 0 0 0-2-2zM16 113a2 2 0 0 0-2 2v11a2 2 0 0 0 4 0v-11a2 2 0 0 0-2-2zM4 113a2 2 0 0 0-2 2v11a2 2 0 0 0 4 0v-11a2 2 0 0 0-2-2z"/><path class="cls-1" d="M66 35a2 2 0 0 0-2 2v17a2 2 0 0 0 2 2h17a2 2 0 0 0 2-2V37a2 2 0 0 0-2-2zm15 17H68V39h13z"/></g></g></symbol><symbol id="filter-white" viewBox="0 0 23 22"><title>UI/Filter/Black</title><g fill="none" fill-rule="evenodd"><rect fill="#FFF" x="3" width="1.25" height="2.993" rx=".625"/><rect fill="#FFF" x="11" width="1.25" height="13" rx=".625"/><rect fill="#FFF" x="19" width="1.25" height="6" rx=".625"/><rect fill="#FFF" x="3" y="8" width="1.25" height="14" rx=".625"/><rect fill="#FFF" x="11" y="18.067" width="1.25" height="3.933" rx=".625"/><rect fill="#FFF" x="19" y="11" width="1.25" height="11" rx=".625"/><circle stroke="#FFF" stroke-width="1.25" cx="3.5" cy="5.5" r="2.5"/><circle stroke="#FFF" stroke-width="1.25" cx="11.5" cy="15.5" r="2.5"/><circle stroke="#FFF" stroke-width="1.25" cx="19.5" cy="8.5" r="2.5"/></g></symbol><symbol id="filter" viewBox="0 0 23 22"><title>UI/Filter/Black</title><g fill="none" fill-rule="evenodd"><rect fill="#3A3A3A" x="3" width="1.25" height="2.993" rx=".625"/><rect fill="#3A3A3A" x="11" width="1.25" height="13" rx=".625"/><rect fill="#3A3A3A" x="19" width="1.25" height="6" rx=".625"/><rect fill="#3A3A3A" x="3" y="8" width="1.25" height="14" rx=".625"/><rect fill="#3A3A3A" x="11" y="18.067" width="1.25" height="3.933" rx=".625"/><rect fill="#3A3A3A" x="19" y="11" width="1.25" height="11" rx=".625"/><circle stroke="#3A3A3A" stroke-width="1.25" cx="3.5" cy="5.5" r="2.5"/><circle stroke="#3A3A3A" stroke-width="1.25" cx="11.5" cy="15.5" r="2.5"/><circle stroke="#3A3A3A" stroke-width="1.25" cx="19.5" cy="8.5" r="2.5"/></g></symbol><symbol id="globe" viewBox="0 0 83.1 87.6"><style>.st0{fill:none;stroke:#000;stroke-width:1.25;stroke-miterlimit:10}</style><circle class="st0" cx="25.6" cy="23.2" r="19.5"/><path class="st0" d="M23.8 3.8c-4.4 3.8-7.4 11.3-7.4 19.9 0 7.8 2.5 14.7 6.2 18.7M27.9 3.9c4.3 3.9 7.2 11.3 7.2 19.8 0 7.8-2.5 14.7-6.2 18.7"/><path class="st0" d="M40.7 10.7c-4.1 2.4-9.6 3.9-15.6 3.9-5.7 0-10.9-1.3-14.9-3.5M10.9 36.1c4-2.2 9.2-3.5 15-3.5 5.7 0 10.9 1.3 14.9 3.5M25.6 3.7v39M6.1 23.2h39.1"/></symbol><symbol id="hamburger-white" viewBox="0 0 28 20"><title>UI/Nav/Menu/Black</title><g fill="#fff" fill-rule="evenodd"><rect width="28" height="2" rx="1"/><rect y="9" width="28" height="2" rx="1"/><rect y="18" width="28" height="2" rx="1"/></g></symbol><symbol id="hamburger" viewBox="0 0 28 20"><title>UI/Nav/Menu/Black</title><g fill="#3A3A3A" fill-rule="evenodd"><rect width="28" height="2" rx="1"/><rect y="9" width="28" height="2" rx="1"/><rect y="18" width="28" height="2" rx="1"/></g></symbol><symbol id="heart-empty-dark" viewBox="0 0 24 21"><path d="M6.853 0C4.865 0 2.979.903 1.678 2.48.478 3.93-.112 5.787.018 7.705c.128 1.918.96 3.668 2.342 4.928l.274.25 8.55 7.797c.234.213.526.32.816.32.29 0 .583-.107.816-.32l8.55-7.798.273-.249c1.382-1.26 2.215-3.01 2.344-4.928.128-1.918-.461-3.774-1.66-5.226C21.02.904 19.134 0 17.146 0a6.661 6.661 0 0 0-4.488 1.761L12 2.364l-.659-.602A6.66 6.66 0 0 0 6.853 0m0 1.309c1.302 0 2.61.474 3.671 1.441L12 4.096l1.475-1.346a5.43 5.43 0 0 1 3.673-1.441c1.567 0 3.126.687 4.234 2.029 2.03 2.456 1.779 6.175-.559 8.307l-.273.25L12 19.692l-8.55-7.798-.273-.25C.839 9.513.589 5.793 2.618 3.337 3.727 1.995 5.285 1.308 6.853 1.31" fill="#4A4A4A"/></symbol><symbol id="heart-empty" viewBox="0 0 24 21"><path d="M6.853 0C4.865 0 2.979.903 1.678 2.48.478 3.93-.112 5.787.018 7.705c.128 1.918.96 3.668 2.342 4.928l.274.25 8.55 7.797c.234.213.526.32.816.32.29 0 .583-.107.816-.32l8.55-7.798.273-.249c1.382-1.26 2.215-3.01 2.344-4.928.128-1.918-.461-3.774-1.66-5.226C21.02.904 19.134 0 17.146 0a6.661 6.661 0 0 0-4.488 1.761L12 2.364l-.659-.602A6.66 6.66 0 0 0 6.853 0m0 1.309c1.302 0 2.61.474 3.671 1.441L12 4.096l1.475-1.346a5.43 5.43 0 0 1 3.673-1.441c1.567 0 3.126.687 4.234 2.029 2.03 2.456 1.779 6.175-.559 8.307l-.273.25L12 19.692l-8.55-7.798-.273-.25C.839 9.513.589 5.793 2.618 3.337 3.727 1.995 5.285 1.308 6.853 1.31" fill="#AAA"/></symbol><symbol id="heart-full" viewBox="0 0 24 21"><path d="M6.853 0C4.865 0 2.979.903 1.678 2.48.478 3.93-.112 5.787.018 7.705c.128 1.918.96 3.668 2.342 4.928l.274.25 8.55 7.797c.234.213.526.32.816.32.29 0 .583-.107.816-.32l8.55-7.798.273-.249c1.382-1.26 2.215-3.01 2.344-4.928.128-1.918-.461-3.774-1.66-5.226C21.02.904 19.134 0 17.146 0a6.661 6.661 0 0 0-4.488 1.761L12 2.364l-.659-.602A6.66 6.66 0 0 0 6.853 0" fill="#552448"/></symbol><symbol id="ico-pagination-lg-arrow-next" viewBox="0 0 31.811 62.121"><path data-name="Path 197" d="M1.061 1.061l30 30-30 30" fill="none" stroke="#3a3a3a" stroke-linecap="round" stroke-linejoin="round" stroke-width="1.5"/></symbol><symbol id="ico-pagination-lg-arrow-previous" viewBox="0 0 31.811 62.121"><path data-name="Path 197" d="M30.75 61.061l-30-30 30-30" fill="none" stroke="#3a3a3a" stroke-linecap="round" stroke-linejoin="round" stroke-width="1.5"/></symbol><symbol id="icon-rotate" viewBox="0 0 24 14"><title>icon-rotate</title><g stroke="#3A3A3A" fill="none" fill-rule="evenodd"><path d="M15.308 9.793C19.767 9.218 23 7.513 23 5.5 23 3.015 18.075 1 12 1S1 3.015 1 5.5c0 2.016 3.241 3.723 7.709 4.295l1.45.169"/><path d="M6.968 6.512v6.104l4.041-2.92-4.04-3.184z"/></g></symbol><symbol id="info-circle-dark" viewBox="0 0 18 18"><title>btn-info</title><circle class="st0" cx="9" cy="10" r="9" fill="#3A3A3A" transform="translate(0 -1)"/><g fill="#FFF" class="st1"><path class="st2" d="M7.9 4.7c0-.5.4-.9.9-.9s.9.4.9.9-.4.9-.9.9-.9-.4-.9-.9zm.2 2.1h1.3V14H8.1V6.8z"/></g></symbol><symbol id="info-circle" viewBox="0 0 20 20"><title>btn-info</title><path class="st0" d="M10 19.5C4.8 19.5.5 15.2.5 10S4.8.5 10 .5s9.5 4.3 9.5 9.5-4.3 9.5-9.5 9.5zm0-18c-4.7 0-8.5 3.8-8.5 8.5s3.8 8.5 8.5 8.5 8.5-3.8 8.5-8.5-3.8-8.5-8.5-8.5z" fill="#AAA"/><path class="st2" d="M8.9 5.7c0-.5.4-.9.9-.9s.9.4.9.9-.4.9-.9.9-.9-.4-.9-.9zm.2 2.1h1.3V15H9.1V7.8z" fill="#3A3A3A"/></symbol><symbol id="instagram-circle" viewBox="0 0 30 30"><title>UI/Social/Facebook Copy</title><g fill="none" fill-rule="evenodd"><g><mask id="mask-2" fill="#fff"><use xlink:href="#path-1"/></mask><g mask="url(#mask-2)" fill="#3A3A3A"><path d="M0 0h30v30H0z"/></g></g><g fill="#FFF"><path d="M14.946 7.579V7.6c-.49 0-.981-.013-1.47.003-.966.031-1.937.033-2.897.13-1.457.148-2.456 1.063-2.748 2.494-.121.596-.156 1.215-.169 1.825a135.158 135.158 0 0 0-.02 4.241c.012.988.03 1.981.129 2.963.145 1.455 1.06 2.453 2.494 2.746.59.121 1.205.16 1.81.17 1.663.024 3.328.03 4.992.011.817-.01 1.644-.032 2.45-.158 1.283-.2 2.134-.962 2.504-2.224.19-.651.21-1.326.215-1.996.016-1.755.025-3.51.007-5.266-.008-.734-.042-1.475-.153-2.199-.167-1.095-.764-1.91-1.808-2.356-.538-.23-1.11-.315-1.691-.33-1.215-.032-2.43-.052-3.645-.076M6 14.896c.032-1.302.046-2.604.101-3.904.047-1.082.32-2.106.98-2.993.767-1.03 1.814-1.605 3.065-1.828.975-.175 1.962-.168 2.946-.17 1.694-.005 3.388.009 5.08.03.864.01 1.722.085 2.538.4 1.625.625 2.59 1.817 2.941 3.501.11.527.16 1.073.175 1.612.067 2.432.094 4.865-.03 7.296-.054 1.07-.33 2.08-.982 2.957-.768 1.03-1.812 1.608-3.063 1.83-.98.175-1.974.169-2.965.171-1.687.004-3.375-.01-5.062-.03-.845-.01-1.686-.085-2.488-.384-1.595-.595-2.585-1.736-2.955-3.382-.138-.616-.191-1.258-.21-1.89-.034-1.071-.01-2.144-.01-3.216H6"/><path d="M17.923 14.907a2.974 2.974 0 1 0-5.948-.024 2.974 2.974 0 0 0 5.948.024m-2.975-4.577a4.563 4.563 0 0 1 4.578 4.568 4.564 4.564 0 0 1-4.576 4.57A4.566 4.566 0 0 1 10.37 14.9a4.565 4.565 0 0 1 4.577-4.57M20.783 10.15a1.08 1.08 0 0 1-1.077 1.065 1.08 1.08 0 0 1-1.067-1.074 1.08 1.08 0 0 1 1.077-1.066 1.079 1.079 0 0 1 1.067 1.075"/></g></g></symbol><symbol id="instagram" viewBox="0 0 18 18"><title>UI/Social/Facebook Copy 5</title><g fill="#3A3A3A" fill-rule="evenodd"><path d="M8.946 1.579V1.6c-.49 0-.981-.013-1.47.003-.966.031-1.937.033-2.897.13-1.457.148-2.456 1.063-2.748 2.494-.121.596-.156 1.215-.169 1.825a135.158 135.158 0 0 0-.02 4.241c.012.988.03 1.981.129 2.963.145 1.455 1.06 2.453 2.494 2.746.59.121 1.205.16 1.81.17 1.663.024 3.328.03 4.992.011.817-.01 1.644-.032 2.45-.158 1.283-.2 2.134-.962 2.504-2.224.19-.651.21-1.326.215-1.996.016-1.755.025-3.51.007-5.266-.008-.734-.042-1.475-.153-2.199-.167-1.095-.764-1.91-1.808-2.356-.538-.23-1.11-.315-1.691-.33-1.215-.032-2.43-.052-3.645-.076M0 8.896c.032-1.302.046-2.604.101-3.904.047-1.082.32-2.106.98-2.993C1.848.97 2.895.394 4.146.171 5.121-.004 6.108.003 7.092 0c1.694-.005 3.388.009 5.08.03.864.01 1.722.085 2.538.4 1.625.625 2.59 1.817 2.941 3.501.11.527.16 1.073.175 1.612.067 2.432.094 4.865-.03 7.296-.054 1.07-.33 2.08-.982 2.957-.768 1.03-1.812 1.608-3.063 1.83-.98.175-1.974.169-2.965.171-1.687.004-3.375-.01-5.062-.03-.845-.01-1.686-.085-2.488-.384-1.595-.595-2.585-1.736-2.955-3.382-.138-.616-.191-1.258-.21-1.89C.036 11.04.06 9.968.06 8.896H0"/><path d="M11.923 8.907a2.974 2.974 0 1 0-5.948-.024 2.974 2.974 0 0 0 5.948.024M8.948 4.33a4.563 4.563 0 0 1 4.578 4.568 4.564 4.564 0 0 1-4.576 4.57A4.566 4.566 0 0 1 4.37 8.9a4.565 4.565 0 0 1 4.577-4.57M14.783 4.15a1.08 1.08 0 0 1-1.077 1.065 1.08 1.08 0 0 1-1.067-1.074 1.08 1.08 0 0 1 1.077-1.066 1.079 1.079 0 0 1 1.067 1.075"/></g></symbol><symbol id="line-graph-arrow" viewBox="0 0 34 31"><style>.st0{fill:#3a3a3a}</style><title>icon-trend</title><path class="st0" fill="#3A3A3A" d="M13.9 11.1l7.2 8.8 8-8.7 2.6 2.2 2-8.3-7.8 3.4 2.5 2.1-7.2 7.8-7.3-9-9.7 13.5.8.6 8.9-12.4zm18.3-4.2l-1.1 4.8-3.4-2.8 4.5-2z"/><path class="st0" fill="#3A3A3A" d="M1.5.5h-1V31H33v-1H1.5z"/></symbol><symbol id="linkedin" viewBox="0 0 15 14"><title>Combined Shape</title><path d="M14.459 13.836h-3.08v-.084l-.001-5.126c0-.37-.034-.736-.149-1.09-.096-.294-.247-.547-.51-.715-.233-.15-.494-.194-.763-.188-.6.012-1.026.316-1.32.842-.164.29-.228.602-.228.934.002 1.78 0 3.56 0 5.34v.085H5.306v-9.42h3.093v1.299l.02.002c.071-.102.14-.205.212-.306.437-.611 1.012-1.005 1.741-1.131.796-.139 1.57-.063 2.3.317.621.323 1.059.83 1.353 1.474.215.47.34.969.387 1.486.028.31.045.624.046.936.004 1.752.002 3.504.002 5.255v.09zm-10.601.003H3.79c-.967 0-1.934-.001-2.9.001-.066 0-.079-.019-.079-.082 0-1.743-.003-3.486-.006-5.23L.799 5.796.797 4.483v-.068h3.06v9.424zM2.286-.02c.344.014.67.083.963.274.389.254.609.625.676 1.089.07.478-.04.91-.352 1.278-.237.28-.543.44-.893.51-.412.082-.82.065-1.201-.124-.581-.287-.87-.777-.871-1.438C.607.798 1.103.19 1.848.04c.144-.03.292-.04.438-.06z" fill="#3A3A3A" fill-rule="evenodd"/></symbol><symbol id="logo-bhhs" viewBox="0 0 36 36"><title>LOGO/Circle White Copy</title><path d="M21.816 26.458c-1.165 0-2.182-.42-2.86-1.185l-.035-.041.63-.808.052.06a2.971 2.971 0 0 0 2.245 1.031c1.223 0 1.659-.624 1.659-1.207 0-.819-.862-1.05-1.858-1.318-1.16-.313-2.477-.667-2.477-2.129 0-1.22 1.088-2.106 2.59-2.106 1.071 0 1.983.364 2.637 1.05l.04.043-.635.774-.05-.057c-.633-.709-1.475-.857-2.07-.857-.848 0-1.438.451-1.438 1.098 0 .67.794.885 1.711 1.135 1.23.334 2.622.712 2.622 2.3 0 1.072-.726 2.217-2.763 2.217zm-4.382-.131h-1.04v-3.36h-3.865v3.36h-1.042v-7.452h1.042v3.15h3.865v-3.15h1.04v7.452zm7.145-8.87h-1.04v-3.358h-3.865v3.358h-1.041v-7.45h1.041v3.149h3.865v-3.15h1.04v7.45zm-12.05-4.278h1.845c.737 0 1.195-.426 1.195-1.11 0-.681-.468-1.12-1.195-1.12H12.53v2.23zm0 3.336h1.9c.804 0 1.284-.448 1.284-1.198 0-.595-.397-1.197-1.285-1.197h-1.9v2.395zm2.074.942h-3.116v-7.45h3.04c1.266 0 2.118.775 2.118 1.93 0 .88-.536 1.454-1.103 1.673.705.235 1.245.994 1.245 1.807 0 1.239-.857 2.04-2.184 2.04zM29.894 26.7l-.142-.356c.189-.035.4-.143.542-.36.122-.187.097-.328.004-.388-.273-.179-.675.853-1.268.466-.263-.172-.332-.54-.089-.912.164-.25.374-.409.62-.47l.129.35a.81.81 0 0 0-.471.346c-.093.142-.084.262.01.324.249.162.672-.852 1.26-.469.288.189.37.539.095.962-.2.304-.444.456-.69.507zm-1.376 1.986l-1.376-1.286.91-.974.256.24-.635.682.289.27.622-.668.258.24-.622.668.313.293.637-.681.257.24-.909.976zm-2.845 1.106c-.347-.467-.23-1.043.225-1.382a.855.855 0 0 1 .904-.1l-.174.342a.508.508 0 0 0-.517.043c-.276.206-.319.565-.106.851.212.285.569.348.845.142a.51.51 0 0 0 .19-.484l.376-.072a.863.863 0 0 1-.354.84c-.455.34-1.043.284-1.389-.18zm-.793 1.522l-.89-1.66.354-.19.889 1.66-.353.19zm-2.095.891l-1.316-1.53.427-.154.978 1.187.007-1.538.428-.151-.051 2.017-.473.169zm-2.245-.73c-.025-.153-.159-.228-.316-.202l-.418.065.079.503.42-.068c.156-.024.26-.138.235-.297zm.163 1.27l-.471-.603-.29.047.104.661-.395.064-.296-1.862.87-.138c.387-.061.667.154.723.5.052.326-.128.538-.322.618l.534.641-.457.073zm-3.692.218l.06-1.883 1.333.044-.012.353-.931-.03-.013.395.911.03-.01.351-.912-.029-.014.429.93.03-.01.353-1.332-.043zm-2.671-.675l.277-.265a.828.828 0 0 0 .537.37c.219.042.341-.034.363-.143.062-.322-1.046-.306-.909-1.002.06-.307.377-.51.812-.424.294.057.52.194.669.4l-.276.25a.805.805 0 0 0-.497-.308c-.167-.033-.276.02-.297.132-.057.29 1.043.302.906.992-.066.339-.36.545-.856.448-.358-.07-.59-.24-.73-.45zm-2.393-.55l.684-1.756 1.243.484-.128.33-.868-.34-.145.37.85.33-.128.33-.85-.332-.155.4.868.339-.129.328-1.242-.484zm-1.544-.79l.736-1.143-1.182.856-.147-.095.289-1.43-.735 1.143-.338-.218 1.02-1.585.471.305-.252 1.238 1.023-.742.475.306-1.02 1.583-.34-.219zm-1.97-2.63c.25-.248.28-.595.035-.84-.247-.249-.592-.219-.842.03-.249.248-.281.595-.034.842.245.247.591.215.84-.031zm-1.098-1.103c.402-.4.983-.393 1.385.012.401.402.405.983.002 1.383-.4.4-.982.394-1.382-.008-.403-.404-.408-.985-.005-1.387zm-1.657-.642l.664-.436-.487-.743-.665.434-.22-.336 1.576-1.032.22.337-.619.405.487.744.62-.405.22.337-1.576 1.033-.22-.338zm25.393-9.035l.77-.016 1.098-.743.01.457-.744.48.763.451.008.454-1.126-.697-.772.015-.007-.4zm1.209-2.394l-.852-.132.114.576.738-.444zm-1.352.8l.29-.179-.156-.792-.336-.054-.089-.445 1.988.345.097.494-1.706 1.076-.088-.446zm-.801-2.873l1.054-.82-1.318.217-.17-.392 1.512-1.247.18.412-1.116.847 1.392-.215.124.288-1.106.87 1.38-.24.18.411-1.943.26-.17-.391zm-.32-3.608l-.829.237.343.476.485-.713zm-.896 1.291l.19-.282-.474-.654-.328.09-.266-.369 1.95-.514.295.406-1.1 1.692-.267-.369zm-1.734-2.098l.538-.585-.655-.6-.538.584-.294-.272 1.273-1.386.296.27-.502.544.656.603.5-.545.298.274-1.274 1.386-.298-.273zM24.72 6.76l.807-1.3-.467-.29.186-.3 1.276.793-.187.3-.465-.289-.808 1.298-.342-.212zm-1.262-2.28l-.577.64.545.22.032-.86zm-.073 1.57l.01-.34-.748-.304-.23.252-.42-.171 1.379-1.473.465.188-.034 2.018-.422-.17zM20.8 5.196l.142-.78-.873-.16-.144.78-.395-.073.34-1.852.395.073-.134.728.874.16.134-.728.398.072-.34 1.853-.397-.073zm-4.97-.131l-.22-1.872 1.326-.155.04.352-.926.107.046.393.906-.105.042.35-.907.106.05.427.926-.11.041.352-1.325.155zm-1.72-.915c-.045-.149-.19-.205-.34-.158l-.406.124.15.486.405-.125c.151-.046.239-.174.191-.327zm.34 1.233l-.55-.53-.282.087.198.638-.383.119-.556-1.799.843-.26c.374-.116.681.058.785.393.097.315-.052.55-.232.656l.62.56-.443.136zm-2.34.91l-.82-1.695.36-.174.821 1.695-.36.174zm-1.266.723l-.456-.65-.727.512.455.649-.327.23-1.084-1.541.33-.23.424.605.728-.51-.425-.606.33-.232 1.082 1.54-.33.233zm-3.025 2.29l-.073-.376c.192 0 .42-.066.6-.253.154-.162.155-.305.075-.381-.236-.227-.822.712-1.332.222-.226-.218-.226-.593.081-.912.208-.216.445-.333.699-.348l.06.368a.803.803 0 0 0-.527.253c-.118.122-.132.242-.05.32.214.205.818-.713 1.325-.226.248.239.264.597-.087.962-.252.262-.519.365-.77.37zm-.522 1.13l-.946.057.067.221.484.32-.222.334-1.57-1.04.22-.334.7.463-.332-1.019.273-.411.324 1.111 1.275-.115-.273.413zM4.88 12.1c-.143-.06-.278.014-.34.16l-.163.391.47.197.163-.391c.06-.147.019-.295-.13-.357zm1.165.53l-.76.083-.113.27.617.259-.155.37-1.737-.727.34-.813c.152-.362.482-.487.806-.351.304.127.389.392.355.598l.827-.117-.18.428zm-.985 3.239l-1.842-.394.278-1.303.346.074-.195.91.387.083.19-.891.345.073-.191.892.42.09.195-.91.345.073-.278 1.303zm-.707 1.36c-.12-.004-.218.08-.222.234l-.013.52.43.01.012-.52c.004-.148-.073-.241-.207-.244zm-.766.017c-.117-.002-.2.08-.204.216l-.012.502.395.01.012-.502c.003-.136-.07-.223-.191-.226zm1.304 1.157l-1.883-.047.025-.99c.008-.36.242-.537.493-.53.234.005.392.156.424.334.035-.202.234-.355.468-.35.286.008.507.2.499.561l-.026 1.022zm-.444 3.923a.504.504 0 1 0-.002-1.008.504.504 0 0 0 .002 1.008zm27.073 0a.504.504 0 1 0 0-1.008.504.504 0 0 0 0 1.007zM17.984 35.061C8.566 35.062.903 27.4.903 17.982.903 8.565 8.566.903 17.983.903c9.418 0 17.08 7.662 17.08 17.08 0 9.417-7.662 17.08-17.08 17.08zm0-35.062C8.066 0 0 8.067 0 17.982c0 9.916 8.067 17.983 17.983 17.983 9.915 0 17.982-8.067 17.982-17.983C35.965 8.067 27.898 0 17.983 0z" fill="#FFF" fill-rule="evenodd"/></symbol><symbol id="lot-land" viewBox="0 0 128 126.31"><title>land-lot</title><g id="Layer_2" data-name="Layer 2"><g id="Layer_1-2" data-name="Layer 1"><path class="cls-1" d="M85.29 29.75a2 2 0 0 1-1.42-3.41l4.49-4.48a2 2 0 1 1 2.83 2.83l-4.49 4.48a2 2 0 0 1-1.41.58zM102.18 12.92a2 2 0 0 1-1.42-3.42l4.49-4.5a2 2 0 1 1 2.82 2.83l-4.48 4.48a2 2 0 0 1-1.41.61zM89.8 12.89a2 2 0 0 1-1.42-.59L83.9 7.82A2 2 0 1 1 86.73 5l4.48 4.49a2 2 0 0 1 0 2.82 2 2 0 0 1-1.41.58zM106.63 29.78a2 2 0 0 1-1.41-.59l-4.48-4.48a2 2 0 0 1 2.82-2.83l4.49 4.49a2 2 0 0 1 0 2.82 2 2 0 0 1-1.42.59zM96 34.19a2 2 0 0 1-2-2v-6.34a2 2 0 0 1 4 0v6.34a2 2 0 0 1-2 2zM96 10.34a2 2 0 0 1-2-2V2a2 2 0 0 1 4 0v6.34a2 2 0 0 1-2 2zM87.22 19.08h-6.34a2 2 0 0 1 0-4h6.34a2 2 0 1 1 0 4zM111.07 19.11h-6.34a2 2 0 0 1 0-4h6.34a2 2 0 0 1 0 4zM126 122.09H87.19V97a21.91 21.91 0 0 0 12 2 22.14 22.14 0 0 0 9.17-40.75 22.13 22.13 0 0 0-32.11-14.6 2 2 0 0 0-.75 2.68v.05a2 2 0 0 0 2.7.76A18 18 0 0 1 86.79 45a18.2 18.2 0 0 1 17.86 14.89 1.94 1.94 0 0 0 1 1.35l.08.06a18.15 18.15 0 0 1-18.19 31.38 2.17 2.17 0 0 0-.35-.15v-4.12a1.31 1.31 0 0 0 0-.28v-8.31l9.37-9.37a2 2 0 1 0-2.83-2.83l-6.54 6.54v-9.07a2 2 0 0 0-4 0v18.34l-6.64-6.64a2 2 0 0 0-2.82 2.83l9.46 9.46v2.62a18.1 18.1 0 0 1-9.68 2.82 17.8 17.8 0 0 1-5.34-.82 2 2 0 0 0-2.07.59 2 2 0 0 0 .9 3.24 22 22 0 0 0 16.21-1.26v25.82H42.09V97a31 31 0 0 0 29-30.93c0-8.69-3.7-23.14-9-35.15C58.24 22.15 50.23 7.41 40 7.41S21.87 22.16 18 30.94c-5.26 12-8.93 26.46-8.93 35.15A31 31 0 0 0 38.09 97v25.07H2a2 2 0 0 0 0 4h37.2a1.89 1.89 0 0 0 1.77 0h43.37a1.91 1.91 0 0 0 1.7 0h40a2 2 0 0 0 0-4zm-112.91-56c0-8.07 3.61-22.18 8.59-33.54C27.57 19.12 34.26 11.41 40 11.41s12.5 7.71 18.41 21.14c5 11.37 8.64 25.48 8.64 33.54A27 27 0 0 1 42.09 93V79l14.44-14.46a2 2 0 1 0-2.83-2.83L42.09 73.33V55.86l8.38-8.38a2 2 0 0 0-2.83-2.83l-5.55 5.55V29.47a2 2 0 0 0-4 0v25.15a1.87 1.87 0 0 0 0 .94v1.71L31 50.18A2 2 0 0 0 28.17 53l9.92 9.91v11.36L24.5 60.68a2 2 0 0 0-2.83 2.83l16.42 16.41V93a27 27 0 0 1-25-26.91z"/></g></g></symbol><symbol id="map-pin-wht" viewBox="0 0 15 22"><path d="M7.56 0H7.5A7.48 7.48 0 0 0 .05 7.43c0 2.69 2.33 7.28 7.12 14l.33.57.38-.54c4.79-6.75 7.12-11.34 7.12-14A7.47 7.47 0 0 0 7.56 0zM7.5 20.37C3.14 14.16.94 9.81.94 7.43A6.53 6.53 0 0 1 7.5.94h.1a6.53 6.53 0 0 1 6.51 6.49c-.05 2.38-2.25 6.73-6.61 12.94zm0-16.6a3.77 3.77 0 1 0 3.75 3.76A3.76 3.76 0 0 0 7.5 3.77zm0 6.59a2.83 2.83 0 1 1 2.81-2.83 2.82 2.82 0 0 1-2.81 2.83z" fill="#fff"/></symbol><symbol id="map" viewBox="0 0 15 22"><title>Group 3</title><g fill-rule="nonzero" stroke="#3A3A3A" fill="none"><path d="M7.5 21.135c4.667-6.626 7-11.241 7-13.747C14.5 3.586 11.368.5 7.5.5s-7 3.086-7 6.888c0 2.506 2.333 7.121 7 13.747z"/><circle cx="7.5" cy="7.5" r="3"/></g></symbol><symbol id="multi-family" viewBox="0 0 128 128"><title>multi-family</title><g id="Layer_2" data-name="Layer 2"><g id="Layer_1-2" data-name="Layer 1"><path class="cls-1" d="M126 12a2 2 0 0 0 2-2V2a2 2 0 0 0-2-2H2a2 2 0 0 0-2 2v8a2 2 0 0 0 2 2h7v112H2a2 2 0 0 0 0 4h124a2 2 0 0 0 0-4h-7V12zM4 4h120v4H4zm49.34 77l21.32-.1V124H53.34zM115 124H78.66V78.88a1.23 1.23 0 0 0 0-.2v-.2a1.27 1.27 0 0 0-.06-.18 1.52 1.52 0 0 0-.06-.2.81.81 0 0 0-.1-.18s-.05-.11-.08-.15l-.15-.19s-.06-.08-.1-.11l-.2-.17-.09-.07-.24-.13-.1-.06-.31-.04a.45.45 0 0 0-.11 0 1.75 1.75 0 0 0-.4 0H51.13a1.2 1.2 0 0 0-.2 0h-.19l-.19.06-.17.1a.83.83 0 0 0-.16.09l-.16.13-.14.11a1.09 1.09 0 0 0-.13.17.69.69 0 0 0-.11.13 1.62 1.62 0 0 0-.1.18l-.09.16-.06.2a1 1 0 0 0 0 .18.71.71 0 0 0 0 .21 1.1 1.1 0 0 0 0 .18v45H13V12h102z"/><path class="cls-1" d="M22 94h18a2 2 0 0 0 2-2V74a2 2 0 0 0-2-2H22a2 2 0 0 0-2 2v18a2 2 0 0 0 2 2zm2-18h14v14H24zM88 94h18a2 2 0 0 0 2-2V74a2 2 0 0 0-2-2H88a2 2 0 0 0-2 2v18a2 2 0 0 0 2 2zm2-18h14v14H90zM22 67h18a2 2 0 0 0 2-2V47a2 2 0 0 0-2-2H22a2 2 0 0 0-2 2v18a2 2 0 0 0 2 2zm2-18h14v14H24zM88 67h18a2 2 0 0 0 2-2V47a2 2 0 0 0-2-2H88a2 2 0 0 0-2 2v18a2 2 0 0 0 2 2zm2-18h14v14H90zM55 67h18a2 2 0 0 0 2-2V47a2 2 0 0 0-2-2H55a2 2 0 0 0-2 2v18a2 2 0 0 0 2 2zm2-18h14v14H57zM22 40h18a2 2 0 0 0 2-2V20a2 2 0 0 0-2-2H22a2 2 0 0 0-2 2v18a2 2 0 0 0 2 2zm2-18h14v14H24zM88 40h18a2 2 0 0 0 2-2V20a2 2 0 0 0-2-2H88a2 2 0 0 0-2 2v18a2 2 0 0 0 2 2zm2-18h14v14H90zM55 40h18a2 2 0 0 0 2-2V20a2 2 0 0 0-2-2H55a2 2 0 0 0-2 2v18a2 2 0 0 0 2 2zm2-18h14v14H57z"/></g></g></symbol><symbol id="open-house" viewBox="0 0 24 24"><title>UI/Open House</title><g fill="none" fill-rule="evenodd"><path stroke="currentColor" stroke-linecap="round" d="M18.414 11v8.75H6.355V11M3.858 9.793l8.527-5.672 8.527 5.671M3.5 14.713h9M10.73 11.906l2.892 2.806M13.622 14.674l-2.892 2.805"/></g></symbol><symbol id="pdf-icon" viewBox="0 0 24 12"><g fill="none" fill-rule="evenodd"><path stroke="#AAA" d="M.5.5h23v11H.5z"/><text font-size="10" letter-spacing=".5" fill="#AAA" transform="translate(0 -1)"><tspan x="2" y="10">PD</tspan> <tspan x="16.848" y="10" letter-spacing=".455">F</tspan></text></g></symbol><symbol id="photos-wht" viewBox="0 0 19 16"><path d="M0 0v16h19V0zm1 1h17v9.29l-4.5-4.5-5 5-2-2-5.5 5.5zm.72 14l4.78-4.78L11.28 15zm11 0l-3.5-3.51 4.28-4.28 4.5 4.5V15zM10 4.5A2.5 2.5 0 1 0 7.5 7 2.5 2.5 0 0 0 10 4.5zm-4 0A1.5 1.5 0 1 1 7.5 6 1.5 1.5 0 0 1 6 4.5z" fill="#fff"/></symbol><symbol id="photos" viewBox="0 0 19 16"><title>Group 2</title><g fill-rule="nonzero" stroke="#3A3A3A" fill="none"><path d="M.5.5h18v15H.5z"/><path d="M1 15.385L6.203 10 12 16"/><path d="M8 11.873L13.43 7 19 12"/><circle cx="7" cy="5" r="2"/></g></symbol><symbol id="pinterest" viewBox="0 0 17 22"><path d="M7.252 14.163l-.171.66c-.245.933-.463 1.874-.74 2.798-.318 1.062-.888 2.007-1.52 2.914-.181.26-.375.51-.565.765-.06.08-.142.165-.24.108a.316.316 0 0 1-.133-.214c-.059-.545-.124-1.09-.148-1.637-.023-.534-.037-1.072.012-1.603a12.52 12.52 0 0 1 .283-1.659c.375-1.626.771-3.247 1.16-4.87.092-.387.189-.773.27-1.162a.581.581 0 0 0-.023-.304c-.382-1.049-.456-2.107-.083-3.17.249-.708.675-1.29 1.395-1.589.63-.26 1.253-.228 1.804.211.335.268.49.646.554 1.06.098.632-.042 1.24-.212 1.84-.25.884-.522 1.762-.78 2.644-.12.41-.17.825-.025 1.242.257.735.796 1.142 1.552 1.263.81.13 1.515-.138 2.132-.646.688-.565 1.118-1.308 1.438-2.119.348-.879.546-1.793.6-2.736.025-.45.05-.905.019-1.354-.075-1.065-.456-2.015-1.218-2.786-.551-.558-1.226-.918-1.981-1.14a6.292 6.292 0 0 0-1.805-.253c-1.567.007-2.993.435-4.179 1.492a5.564 5.564 0 0 0-1.7 2.807 5.726 5.726 0 0 0-.191 1.712c.036.797.263 1.532.8 2.145.197.225.266.454.172.744-.094.287-.15.585-.23.876-.1.364-.34.475-.687.326-.96-.413-1.59-1.139-1.986-2.078C.492 9.658.369 8.829.36 7.973c-.01-1.12.263-2.167.76-3.159A7.646 7.646 0 0 1 3.649 1.93C4.735 1.176 5.944.723 7.246.5A10.297 10.297 0 0 1 9.675.364c2.008.136 3.781.827 5.214 2.258a6.624 6.624 0 0 1 1.866 3.505c.124.646.12 1.297.079 1.952a10.911 10.911 0 0 1-.344 2.149c-.373 1.386-1.007 2.634-2.042 3.655-.861.848-1.89 1.401-3.09 1.617-.931.167-1.848.147-2.728-.254-.496-.226-.925-.534-1.254-.97a2.058 2.058 0 0 0-.078-.096c-.005-.006-.016-.006-.046-.017" fill="#3A3A3A" fill-rule="evenodd"/></symbol><symbol id="price-tags-bak" viewBox="0 0 34.462 28"><path d="M33.953 17.955l-.11.129-9.317 9.293-.127.1a2.155 2.155 0 0 1-2.8 0l-.124-.1-.808-.808a.538.538 0 0 1 .035-.781.539.539 0 0 1 .722.032l.808.808a1.077 1.077 0 0 0 1.524 0l9.32-9.293a1.077 1.077 0 0 0 0-1.521L18.631 1.389a1.077 1.077 0 0 0-.762-.312H14.81a.538.538 0 0 1-.539-.538A.538.538 0 0 1 14.81 0h3.059a2.155 2.155 0 0 1 1.519.63l14.449 14.41.108.127a2.153 2.153 0 0 1 .008 2.788zm-15.947 9.527l.124-.1 9.32-9.293.108-.129a2.153 2.153 0 0 0 0-2.789l-.11-.127L13 .63A2.155 2.155 0 0 0 11.477 0H2.154A2.154 2.154 0 0 0 0 2.154v9.29a2.137 2.137 0 0 0 .63 1.518l14.449 14.415.124.1a2.155 2.155 0 0 0 2.803.005zM1.077 11.667V2.154a1.077 1.077 0 0 1 1.077-1.077h9.322a1.077 1.077 0 0 1 .759.315L26.691 15.8a1.077 1.077 0 0 1 0 1.521l-9.32 9.293a1.077 1.077 0 0 1-1.524 0L1.236 12.046a.538.538 0 0 1-.159-.379zm8.078-5.222a2.693 2.693 0 1 0-2.693 2.692 2.692 2.692 0 0 0 2.693-2.692zm-1.047 0A1.645 1.645 0 1 1 6.463 4.8a1.645 1.645 0 0 1 1.645 1.642z" fill="#fff"/></symbol><symbol id="price-tags" viewBox="0 0 38 36"><style>.st0{fill:#3a3a3a}</style><title>Icon</title><path class="st0" d="M37.3 23.2L21.7 4.7l-5.2-.5-1.9-2.3L2.2.7c-.6 0-1 .4-1.1.9L.1 14l16 19.1c.2.2.5.4.8.4.2 0 .5-.1.6-.2l2.8-2.3 3.2 3.9c.2.2.4.3.7.4h.1c.2 0 .5-.1.6-.2l12.3-10.3c.2-.2.3-.4.4-.7-.1-.4-.1-.7-.3-.9zm-20.4 9.3L1.1 13.7l1-12 12 1.1 1 1.2 14.7 17.5-10.3 8.6-2.6 2.4zm7.4 1.6L21 30.3l9.5-8c.2-.2.3-.4.4-.7 0-.3-.1-.5-.2-.7L17.5 5.2l3.7.4 15.3 18.2-12.2 10.3z"/><path class="st0" d="M6.2 5.7c-.7-.1-1.3.1-1.8.5s-.8 1-.9 1.7c-.1.7.1 1.3.6 1.9.5.6 1.2.9 1.9.9.6 0 1.1-.2 1.6-.6.5-.4.8-1 .9-1.7s-.2-1.3-.6-1.9-1.1-.8-1.7-.8zm.7 3.6c-.6.5-1.6.5-2.1-.2-.2-.3-.4-.7-.3-1.1 0-.4.2-.8.5-1 .3-.2.6-.4 1-.4s.9.2 1.2.5c.3.3.4.7.3 1.1-.1.5-.3.8-.6 1.1z"/><g><path class="st0" d="M4.7 6.6c-.8.7-1 2-.2 2.8.7.8 2 1 2.8.2.8-.7 1-2 .2-2.8-.7-.8-2-.9-2.8-.2z"/><path class="st0" d="M6 10.7c-.7 0-1.4-.3-1.9-.9-.5-.6-.7-1.2-.6-1.9.1-.7.4-1.3.9-1.7 1-.8 2.6-.7 3.5.3.4.5.6 1.2.6 1.8s-.4 1.3-.9 1.7c-.5.5-1.1.7-1.6.7zm0-4c-.4 0-.7.1-1 .3-.3.3-.5.6-.5 1s.1.8.3 1.1c.5.6 1.5.7 2.1.2.6-.5.7-1.5.2-2.1-.3-.3-.6-.5-1-.5H6z"/></g></symbol><symbol id="sales-tags" viewBox="0 0 38 36"><title>Icon</title><path class="st0" fill="#3A3A3A" d="M37.3 23.2L21.7 4.7l-5.2-.5-1.9-2.3L2.2.7c-.6 0-1 .4-1.1.9L.1 14l16 19.1c.2.2.5.4.8.4.2 0 .5-.1.6-.2l2.8-2.3 3.2 3.9c.2.2.4.3.7.4h.1c.2 0 .5-.1.6-.2l12.3-10.3c.2-.2.3-.4.4-.7-.1-.4-.1-.7-.3-.9zm-20.4 9.3L1.1 13.7l1-12 12 1.1 1 1.2 14.7 17.5-10.3 8.6-2.6 2.4zm7.4 1.6L21 30.3l9.5-8c.2-.2.3-.4.4-.7 0-.3-.1-.5-.2-.7L17.5 5.2l3.7.4 15.3 18.2-12.2 10.3z"/><path class="st0" d="M6.2 5.7c-.7-.1-1.3.1-1.8.5s-.8 1-.9 1.7c-.1.7.1 1.3.6 1.9.5.6 1.2.9 1.9.9.6 0 1.1-.2 1.6-.6.5-.4.8-1 .9-1.7s-.2-1.3-.6-1.9-1.1-.8-1.7-.8zm.7 3.6c-.6.5-1.6.5-2.1-.2-.2-.3-.4-.7-.3-1.1 0-.4.2-.8.5-1 .3-.2.6-.4 1-.4s.9.2 1.2.5c.3.3.4.7.3 1.1-.1.5-.3.8-.6 1.1z"/><g><path class="st1" fill="#F6F6F6" d="M4.7 6.6c-.8.7-1 2-.2 2.8.7.8 2 1 2.8.2.8-.7 1-2 .2-2.8-.7-.8-2-.9-2.8-.2z"/><path class="st0" fill="#3A3A3A" d="M6 10.7c-.7 0-1.4-.3-1.9-.9-.5-.6-.7-1.2-.6-1.9.1-.7.4-1.3.9-1.7 1-.8 2.6-.7 3.5.3.4.5.6 1.2.6 1.8s-.4 1.3-.9 1.7c-.5.5-1.1.7-1.6.7zm0-4c-.4 0-.7.1-1 .3-.3.3-.5.6-.5 1s.1.8.3 1.1c.5.6 1.5.7 2.1.2.6-.5.7-1.5.2-2.1-.3-.3-.6-.5-1-.5H6z"/></g></symbol><symbol id="saved-properties-list-heart" viewBox="0 0 20 18"><title>saved-properties-list-heart</title><path d="M5.71 0C4.056 0 2.484.753 1.399 2.066A6.152 6.152 0 0 0 .015 6.421c.107 1.598.8 3.056 1.952 4.106l.228.208 7.125 6.498c.195.178.438.267.68.267.242 0 .486-.09.68-.267l7.125-6.498.227-.207c1.152-1.051 1.846-2.51 1.954-4.107a6.156 6.156 0 0 0-1.384-4.355C17.517.753 15.945 0 14.289 0a5.551 5.551 0 0 0-3.74 1.468L10 1.97l-.55-.502A5.55 5.55 0 0 0 5.71 0z" fill="#552448" fill-rule="evenodd"/></symbol><symbol id="saved-properties-list-open-house-times" viewBox="0 0 25 23"><title>saved-properties-list-open-house-times</title><g fill="none" fill-rule="evenodd"><path d="M12.228 18.132c-1.02 0-1.716-.396-2.22-.96l.504-.744c.408.48.888.816 1.716.816 1.62 0 2.256-1.62 2.256-3.144 0-.096 0-.204-.012-.312-.348.552-1.236 1.248-2.256 1.248-1.44 0-2.628-.852-2.628-2.556 0-1.38 1.056-2.616 2.808-2.616 2.232 0 3.096 1.956 3.096 4.14 0 2.16-1.02 4.128-3.264 4.128zm.216-3.96c.792 0 1.572-.492 2.004-1.2-.096-.984-.624-2.22-2.016-2.22-1.224 0-1.836.924-1.836 1.692 0 1.176.816 1.728 1.848 1.728z" fill="#3A3A3A"/><path stroke="#3A3A3A" d="M.5.5h24v22H.5z"/><path fill="#552448" d="M0 0h25v7H0z"/></g></symbol><symbol id="saved-properties-list-price-changes" viewBox="0 0 24 23"><title>saved-properties-list-price-changes</title><g fill="none" fill-rule="evenodd"><path d="M5.825 22.5v-2.225C3.3 20.15 1.4 19.1.2 17.65l.925-1.075c1 1.15 2.575 2.25 4.7 2.4v-7C3.275 11.25.725 10.45.725 7.5c0-2.6 2.25-4.3 5.1-4.425V.8h1.15v2.275C9.075 3.25 10.7 4.1 11.85 5.4l-.95 1.05C9.875 5.225 8.5 4.575 6.975 4.4v6.3c2.575.725 5.25 1.675 5.25 4.875 0 2.05-1.3 4.45-5.25 4.7V22.5h-1.15zm4.9-6.825c0-2.025-1.725-2.775-3.75-3.375v6.675c2.875-.225 3.75-1.95 3.75-3.3zm-8.5-8.25c0 1.75 1.65 2.4 3.6 2.95v-6c-2.075.1-3.6 1.35-3.6 3.05z" fill="#3A3A3A"/><path d="M20 2.118L16.809 8.5h6.382L20 2.118z" stroke="#3A3A3A"/><path fill="#552448" d="M20 23l4-8h-8z"/></g></symbol><symbol id="saved-properties-list-status-changes" viewBox="0 0 45 23"><title>saved-properties-list-status-changes</title><g fill="none" fill-rule="evenodd"><path fill="#552448" d="M0 11h45v12H0z"/><path d="M13.676 20.096c-.92 0-1.608-.352-2.048-.848l.4-.512c.344.4.92.768 1.672.768.952 0 1.256-.512 1.256-.928 0-1.376-3.16-.608-3.16-2.512 0-.88.784-1.488 1.84-1.488.808 0 1.44.28 1.888.752l-.4.488c-.4-.448-.96-.64-1.544-.64-.632 0-1.096.344-1.096.848 0 1.2 3.16.512 3.16 2.504 0 .768-.528 1.568-1.968 1.568zm5.892 0c-1.576 0-2.648-1.184-2.648-2.76 0-1.576 1.072-2.76 2.648-2.76s2.656 1.184 2.656 2.76c0 1.576-1.08 2.76-2.656 2.76zm0-.592c1.192 0 1.968-.928 1.968-2.168 0-1.248-.776-2.168-1.968-2.168-1.2 0-1.96.92-1.96 2.168 0 1.24.76 2.168 1.96 2.168zm7.244.496h-3.144v-5.336h.664v4.744h2.48V20zm3.212 0H28.2v-5.336h1.824c1.664 0 2.736 1.16 2.736 2.672 0 1.52-1.072 2.664-2.736 2.664zm0-.592c1.296 0 2.048-.928 2.048-2.072 0-1.152-.728-2.08-2.048-2.08h-1.16v4.152h1.16z" fill="#F6F6F6"/><g><path stroke="#3A3A3A" d="M.5.5h44v11H.5z"/><path d="M4.288 9h-.664V3.664H7.12v.592H4.288v1.72h2.776v.592H4.288V9zm6.676.096c-1.576 0-2.648-1.184-2.648-2.76 0-1.576 1.072-2.76 2.648-2.76s2.656 1.184 2.656 2.76c0 1.576-1.08 2.76-2.656 2.76zm0-.592c1.192 0 1.968-.928 1.968-2.168 0-1.248-.776-2.168-1.968-2.168-1.2 0-1.96.92-1.96 2.168 0 1.24.76 2.168 1.96 2.168zm8.06.496h-.784l-1.352-2.12h-1.072V9h-.664V3.664h2.144c.976 0 1.68.624 1.68 1.608 0 .96-.664 1.488-1.392 1.552L19.024 9zm-1.808-2.704c.632 0 1.072-.424 1.072-1.024 0-.608-.44-1.016-1.072-1.016h-1.4v2.04h1.4zm7.608 2.8c-.92 0-1.608-.352-2.048-.848l.4-.512c.344.4.92.768 1.672.768.952 0 1.256-.512 1.256-.928 0-1.376-3.16-.608-3.16-2.512 0-.88.784-1.488 1.84-1.488.808 0 1.44.28 1.888.752l-.4.488c-.4-.448-.96-.64-1.544-.64-.632 0-1.096.344-1.096.848 0 1.2 3.16.512 3.16 2.504 0 .768-.528 1.568-1.968 1.568zM32.772 9h-.76l-.472-1.192h-2.656L28.412 9h-.76l2.152-5.336h.824L32.772 9zm-1.424-1.776l-1.136-2.88-1.128 2.88h2.264zM37.024 9H33.88V3.664h.664v4.744h2.48V9zm4.884 0h-3.496V3.664h3.496v.592h-2.832v1.72h2.776v.592h-2.776v1.84h2.832V9z" fill="#3A3A3A"/></g></g></symbol><symbol id="saved-properties" viewBox="0 0 16 14"><title>saved-properties</title><path d="M4.997.5c1.087 0 2.137.412 2.956 1.159L8 1.702l.048-.044A4.386 4.386 0 0 1 11.003.5c1.31 0 2.55.595 3.404 1.628a4.81 4.81 0 0 1 1.082 3.4 4.75 4.75 0 0 1-1.53 3.21l-.158.146-4.987 4.548a1.204 1.204 0 0 1-1.627 0L2.2 8.885l-.16-.146a4.749 4.749 0 0 1-1.528-3.21 4.807 4.807 0 0 1 1.082-3.4A4.414 4.414 0 0 1 4.997.5zM2.364 2.765A3.807 3.807 0 0 0 1.51 5.46 3.75 3.75 0 0 0 2.714 8l.16.145 4.987 4.55c.041.036.09.055.14.055.048 0 .097-.019.138-.056l4.988-4.549.159-.145A3.75 3.75 0 0 0 14.49 5.46a3.81 3.81 0 0 0-.855-2.696A3.416 3.416 0 0 0 11.003 1.5c-.836 0-1.646.318-2.281.897L8 3.056l-.337-.308-.384-.35A3.385 3.385 0 0 0 4.997 1.5c-1.009 0-1.968.46-2.633 1.265z" fill="currentColor" fill-rule="nonzero"/></symbol><symbol id="saved-search-delete" viewBox="0 0 22 23"><title>saved-search-delete</title><path d="M11 10.692l9.549-9.549a.802.802 0 0 1 1.135 1.135l-9.55 9.55 9.55 9.548a.802.802 0 0 1-1.135 1.135L11 12.961l-9.549 9.55a.802.802 0 0 1-1.135-1.135l9.55-9.549-9.55-9.549a.802.802 0 0 1 1.135-1.135L11 10.693z" fill="#3A3A3A" fill-rule="evenodd"/></symbol><symbol id="saved-search-pencil" viewBox="0 0 20 20"><path d="M3.252 0l2.169 2.168-3.254 3.253L0 3.252 3.252 0zM20 20l-3.638-.386 3.253-3.252L20 20zm-1.47-4.723l-3.252 3.253L3.252 6.505l3.253-3.253L18.53 15.277z" fill="#3A3A3A"/></symbol><symbol id="saved-searches" viewBox="0 0 14 14"><title>saved-searches</title><path d="M13.88 13.305a.407.407 0 1 1-.575.576l-3.79-3.79a5.724 5.724 0 0 1-3.765 1.41C2.58 11.5 0 8.92 0 5.75 0 2.58 2.58 0 5.75 0c3.171 0 5.751 2.58 5.751 5.75 0 1.44-.533 2.756-1.41 3.766l3.79 3.789zM.815 5.75a4.942 4.942 0 0 0 4.936 4.937 4.942 4.942 0 0 0 4.937-4.937A4.942 4.942 0 0 0 5.75.814 4.942 4.942 0 0 0 .814 5.75z" fill="currentColor" fill-rule="evenodd"/></symbol><symbol id="school-ap-courses" viewBox="0 0 60 34"><title>Ap</title><text transform="translate(-46 -70)" fill="#3A3A3A" fill-rule="evenodd" font-family="ProximaNova-Light, Proxima Nova" font-size="50" font-weight="300" letter-spacing="1.339"><tspan x="46.211" y="104">AP</tspan></text></symbol><symbol id="school-athletics" viewBox="0 0 61 61"><title>noun_Sports_1055957</title><g fill="#3A3A3A" fill-rule="nonzero"><path d="M45.562 25.002c-4.745 1.13-9.715 4.067-13.631 7.983-3.69 3.69-6.477 8.887-7.531 14.158-.979 5.046-.301 9.338 1.807 11.447 1.507 1.506 3.992 2.26 7.08 2.26 1.355 0 2.861-.151 4.367-.452 5.272-1.055 10.393-3.766 14.158-7.531 3.916-3.916 6.853-8.887 7.983-13.631 1.205-5.046.452-9.263-2.26-11.974-2.71-2.711-6.928-3.464-11.973-2.26zm13.179 8.586l-7.531-7.531c2.184.226 3.991.979 5.271 2.334 1.28 1.28 2.034 3.088 2.26 5.197zm-12.577-7.155a20.43 20.43 0 0 1 2.862-.452l9.79 9.79a20.43 20.43 0 0 1-.452 2.862l-12.2-12.2zm-20.71 25.38l7.531 7.53c-2.485-.075-4.518-.678-5.648-1.807-1.205-1.13-1.807-3.163-1.883-5.724zm11.9 7.078c-.83.151-1.582.302-2.335.377l-9.49-9.489c.076-.753.151-1.581.377-2.335 0-.15.075-.3.15-.451l11.9 11.898c-.226-.075-.452 0-.603 0zm13.404-7.079c-3.012 3.013-7.004 5.347-11.221 6.552L26.433 45.26c1.205-4.217 3.54-8.208 6.552-11.22 3.314-3.314 7.456-5.875 11.447-7.155L57.837 40.29c-1.205 4.067-3.765 8.209-7.079 11.522z"/><path d="M49.628 35.17a.728.728 0 0 0-1.054 0l-1.807 1.807-1.657-1.657a.728.728 0 0 0-1.054 0 .728.728 0 0 0 0 1.054l1.656 1.657-1.355 1.355L42.7 37.73a.728.728 0 0 0-1.054 0 .728.728 0 0 0 0 1.054l1.656 1.657-1.355 1.355-1.657-1.656a.728.728 0 0 0-1.054 0 .728.728 0 0 0 0 1.054l1.657 1.657-1.356 1.355-1.657-1.657a.728.728 0 0 0-1.054 0 .728.728 0 0 0 0 1.055l1.657 1.656-1.356 1.356-1.657-1.657a.728.728 0 0 0-1.054 0 .728.728 0 0 0 0 1.055l1.657 1.656-1.808 1.808a.728.728 0 0 0 0 1.054c.151.15.377.226.528.226.15 0 .376-.075.527-.226l1.807-1.807 1.657 1.656c.15.151.376.226.527.226.15 0 .377-.075.527-.226a.728.728 0 0 0 0-1.054l-1.657-1.657 1.356-1.355 1.657 1.657c.15.15.376.226.527.226.15 0 .377-.076.527-.226a.728.728 0 0 0 0-1.055l-1.657-1.657 1.356-1.355 1.657 1.657c.15.15.376.226.527.226.15 0 .376-.076.527-.226a.728.728 0 0 0 0-1.055l-1.732-1.581 1.355-1.356 1.657 1.657c.15.15.377.226.527.226.151 0 .377-.075.528-.226a.728.728 0 0 0 0-1.054l-1.657-1.657 1.355-1.356 1.657 1.657c.15.15.377.226.527.226.15 0 .377-.075.527-.226a.728.728 0 0 0 0-1.054l-1.656-1.657 1.807-1.807a.758.758 0 0 0 .075-1.13zM47.896 2.485c-5.347 0-9.64 4.368-9.64 9.64 0 5.271 4.293 9.715 9.64 9.715s9.64-4.368 9.64-9.64-4.293-9.715-9.64-9.715zm5.046 3.238c-1.43 1.205-3.238 1.808-5.046 1.808-1.882 0-3.615-.678-5.045-1.808 1.43-1.13 3.163-1.807 5.045-1.807 1.883.075 3.69.753 5.046 1.807zM42.926 18.601a7.98 7.98 0 0 1 4.97-1.732 7.98 7.98 0 0 1 4.97 1.732c-1.355 1.055-3.087 1.657-4.97 1.657-1.882.075-3.54-.602-4.97-1.657zm10.995-.979a9.411 9.411 0 0 0-6.025-2.184c-2.259 0-4.368.753-6.024 2.184-1.28-1.43-2.109-3.389-2.109-5.422s.753-3.916 2.033-5.347c1.732 1.431 3.916 2.26 6.176 2.26 2.259 0 4.443-.829 6.175-2.26A7.995 7.995 0 0 1 56.18 12.2c-.15 2.033-.903 3.916-2.259 5.422zM4.895 40.968c-1.807 1.807-2.862 4.217-2.862 6.853 0 2.56.98 5.046 2.862 6.853a9.702 9.702 0 0 0 6.853 2.862c2.485 0 4.97-.98 6.853-2.862 1.808-1.807 2.862-4.217 2.862-6.853 0-2.56-.979-5.046-2.862-6.853-1.807-1.808-4.217-2.862-6.853-2.862-2.636.075-5.046 1.054-6.853 2.862zm-1.28 7.907c1.807.226 3.464.98 4.744 2.26 1.28 1.28 2.034 2.937 2.26 4.744-1.733-.226-3.39-.979-4.67-2.335-1.28-1.204-2.108-2.861-2.334-4.669zm13.857 4.745a7.881 7.881 0 0 1-5.347 2.334c-.226-2.184-1.13-4.292-2.711-5.874-1.582-1.581-3.615-2.56-5.874-2.71a7.927 7.927 0 0 1 2.334-5.348c1.43-1.43 3.238-2.259 5.196-2.334a9.297 9.297 0 0 0 2.711 5.949 9.297 9.297 0 0 0 5.95 2.711c0 2.033-.829 3.84-2.26 5.272zm2.334-6.778c-1.807-.15-3.54-.979-4.895-2.26a7.82 7.82 0 0 1-2.26-4.894c1.808.226 3.54.979 4.82 2.334 1.356 1.356 2.11 3.013 2.335 4.82zM30.5 5.874c-6.928-6.928-18.225-6.928-25.153 0-7.004 6.928-7.004 18.225-.075 25.228A17.795 17.795 0 0 0 17.848 36.3c4.594 0 9.112-1.732 12.577-5.197 7.003-7.003 7.003-18.3.075-25.228zM1.657 19.656a19.525 19.525 0 0 0 11.371-4.97l3.841 3.84-10.995 10.92c-2.56-2.787-3.991-6.25-4.217-9.79zm32.458-2.335a19.525 19.525 0 0 0-11.372 4.97l-3.84-3.84L29.897 7.53c2.56 2.786 3.99 6.25 4.217 9.79zm-16.192.075l-3.84-3.84c2.861-3.088 4.669-7.08 4.97-11.372 3.54.226 7.004 1.657 9.79 4.217l-10.92 10.995zm-4.895-4.895l-6.1-6.1c3.013-2.71 6.778-4.142 10.619-4.217a18.118 18.118 0 0 1-4.519 10.317zm4.895 7.08l3.841 3.84c-2.862 3.088-4.669 7.079-4.97 11.372-3.54-.226-7.004-1.657-9.79-4.218l10.92-10.995zm4.896 4.894l6.1 6.1c-3.013 2.711-6.778 4.142-10.619 4.218.301-3.916 1.883-7.531 4.519-10.318zm1.054-1.13a17.181 17.181 0 0 1 10.317-4.518c-.075 3.84-1.506 7.606-4.217 10.619l-6.1-6.1zM5.874 7.532l6.1 6.1a17.181 17.181 0 0 1-10.317 4.518c.075-3.84 1.506-7.606 4.217-10.618z"/></g></symbol><symbol id="school-gifted-talented" viewBox="0 0 45 61"><title>noun_Ribbon_763066</title><g fill="#3A3A3A" fill-rule="nonzero"><path d="M20.333 18.601l-.376 2.41c0 .15 0 .226.15.301.076.076.151.076.151.076h.15l2.185-1.13 2.184 1.13a.23.23 0 0 0 .3 0c.076-.076.151-.151.151-.302l-.376-2.41 1.732-1.732c.075-.075.075-.225.075-.3 0-.076-.15-.227-.226-.227l-2.41-.376-1.054-2.184c-.075-.226-.452-.226-.527 0l-1.054 2.184-2.41.376c-.15 0-.226.076-.226.226 0 .076 0 .226.075.301l1.506 1.657z"/><path d="M1.807 55.201l8.435-4.368 3.314 8.962c.075.301.376.452.677.527.302 0 .603-.226.678-.452l7.682-19.73 7.681 19.73c.075.302.377.452.678.452a.723.723 0 0 0 .678-.527l3.313-8.886 8.435 4.368c.301.15.602.075.828-.076.226-.226.301-.527.226-.828L35.32 30.65c3.087-3.163 5.045-7.531 5.045-12.351 0-9.79-7.982-17.698-17.697-17.698C12.878.602 4.97 8.585 4.97 18.3c0 4.744 1.883 9.112 4.97 12.275L.754 54.298c-.15.3 0 .602.226.828.15.226.527.226.828.075zm12.502 2.26l-2.787-7.607 5.724-14.76c1.205.376 2.485.678 3.84.828l.829 2.109-7.606 19.43zm16.643 0l-8.284-21.463c1.883 0 3.69-.302 5.422-.829l5.724 14.76-2.862 7.531zm4.292-8.134l-5.723-14.685c1.732-.678 3.238-1.657 4.67-2.862l8.283 21.237-7.23-3.69zM22.668 2.033c8.962 0 16.191 7.305 16.191 16.192 0 8.886-7.23 16.266-16.191 16.266-8.962 0-16.191-7.305-16.191-16.191s7.23-16.267 16.19-16.267zM11.146 31.705a15.59 15.59 0 0 0 4.669 2.862l-5.724 14.76-7.23 3.69 8.285-21.312z"/><path d="M11.899 26.509a.586.586 0 0 0 .15.602c.151.15.377.301.603.301l2.334-.075.377 2.335c0 .226.15.451.377.527.225.075.451.15.677.075l2.184-.828 1.13 2.033c.075.226.301.301.527.377h.15c.151 0 .377-.076.528-.151l1.807-1.582 1.808 1.582c.15.15.376.226.602.15.226-.075.452-.15.527-.376l1.13-2.033 2.184.828c.226.075.452.075.678-.075.226-.15.3-.301.376-.527l.377-2.335 2.334.075c.226 0 .452-.075.603-.3.15-.152.226-.377.15-.603l-.452-2.335 2.26-.753a.679.679 0 0 0 .452-.452c.075-.226.075-.452-.076-.678l-1.28-1.958 1.807-1.506c.151-.15.302-.376.302-.602 0-.226-.076-.452-.302-.603l-1.807-1.506 1.205-2.033c.15-.226.15-.452.075-.678a.679.679 0 0 0-.452-.452l-2.259-.753.452-2.335a.586.586 0 0 0-.15-.602c-.151-.15-.377-.301-.603-.301l-2.335.075-.376-2.26a.566.566 0 0 0-.377-.526c-.226-.076-.452-.151-.677-.076l-2.184.829-1.13-2.034c-.075-.226-.301-.3-.527-.376a.586.586 0 0 0-.603.15l-1.807 1.582-1.808-1.582a.586.586 0 0 0-.602-.15c-.226.075-.452.15-.527.376L18.6 7.004l-2.184-.829c-.226-.075-.452-.075-.677.076-.226.15-.302.3-.377.527l-.377 2.334-2.334-.075c-.226 0-.452.075-.603.301-.15.15-.226.377-.15.603l.452 2.334-2.26.753a.679.679 0 0 0-.451.452c-.076.226-.076.452.075.678l1.205 2.033-1.808 1.507c-.15.15-.3.376-.3.602 0 .226.074.452.3.602l1.808 1.507-1.205 2.033c-.15.226-.15.452-.075.678a.679.679 0 0 0 .451.452l2.26.753-.452 2.184zm-.377-4.142l1.055-1.808c.225-.301.15-.753-.151-.979l-1.657-1.28 1.657-1.28c.301-.226.376-.678.15-.98l-1.054-1.807 1.958-.677c.377-.151.603-.452.527-.829l-.451-2.108 2.108.075c.377 0 .678-.301.753-.603l.302-2.033 1.958.753c.376.15.753 0 .903-.301l.98-1.808 1.58 1.356a.792.792 0 0 0 .98 0L24.7 6.702l.98 1.808c.15.301.602.452.903.301l1.958-.753.301 2.033c.076.377.377.603.753.603l2.109-.075-.377 2.033c-.075.376.151.753.528.828l1.958.678-1.055 1.807c-.226.302-.15.754.15.98l1.658 1.28-1.582 1.355c-.301.226-.376.678-.15.98l1.054 1.807-1.958.677c-.377.151-.603.452-.527.829l.376 2.033-2.108-.075c-.377 0-.678.301-.753.602l-.302 2.109-1.958-.753c-.376-.15-.753 0-.903.301l-.98 1.808-1.58-1.28a.792.792 0 0 0-.98 0l-1.581 1.355-1.055-1.808a.79.79 0 0 0-.678-.376c-.075 0-.15 0-.3.075l-1.959.753-.301-2.033c-.075-.377-.377-.603-.753-.603l-2.033-.075.376-2.033c.075-.377-.15-.753-.527-.829l-1.883-.677z"/></g></symbol><symbol id="search" viewBox="0 0 22 22"><title>UI/Search/Black</title><path d="M1.28 9.036c0-4.277 3.48-7.757 7.756-7.757 4.278 0 7.758 3.48 7.758 7.757 0 4.277-3.48 7.757-7.758 7.757-4.277 0-7.757-3.48-7.757-7.757m20.533 11.872l-5.954-5.954a8.997 8.997 0 0 0 2.215-5.918C18.073 4.054 14.019 0 9.036 0 4.053 0 0 4.054 0 9.037c0 4.982 4.053 9.036 9.036 9.036 2.262 0 4.33-.837 5.917-2.215l5.955 5.954a.638.638 0 0 0 .904 0 .64.64 0 0 0 0-.904" fill="#3A3A3A" fill-rule="evenodd"/></symbol><symbol id="share-empty" viewBox="0 0 24 16"><path d="M15.45 1.7v2.643c0 .248-.17.464-.414.526C10.658 5.959 4.628 8.26 1.88 13.555c2.55-1.7 5.333-2.668 7.68-3.178a28.003 28.003 0 0 1 3.656-.542c.943-.076 1.512-.077 1.707-.068a.546.546 0 0 1 .525.542v2.628l6.863-5.61-6.863-5.628zM14.966.003a.552.552 0 0 1 .284.12l8.276 6.779a.536.536 0 0 1 0 .839l-8.276 6.78a.558.558 0 0 1-.777-.07.538.538 0 0 1-.128-.346V10.87c-.265.003-.443-.006-1.043.042-.902.073-2.121.226-3.5.526-2.758.599-6.142 1.8-8.888 4.16a.558.558 0 0 1-.778-.05.536.536 0 0 1-.11-.526C2.333 8.037 9.376 5.217 14.346 3.928V.547a.547.547 0 0 1 .62-.543z" fill="#A4A4A4" fill-rule="evenodd"/></symbol><symbol id="single-family" viewBox="0 0 128 102.12"><title>single-family</title><g id="Layer_2" data-name="Layer 2"><g id="Layer_1-2" data-name="Layer 1"><path class="cls-1" d="M70 77h31a2 2 0 0 0 2-2V48a2 2 0 0 0-2-2H70a2 2 0 0 0-2 2v27a2 2 0 0 0 2 2zm2-4V50h27v23zM101 18a2 2 0 0 0 2-2v-4h12v13a2 2 0 1 0 4 0V10a2 2 0 0 0-2-2h-16a2 2 0 0 0-2 2v6a2 2 0 0 0 2 2z"/><path class="cls-1" d="M126 98h-7V33v-.06a1.49 1.49 0 0 0 0-.21 1.13 1.13 0 0 0 0-.18 1.05 1.05 0 0 0 0-.19c0-.06 0-.12-.07-.18l-.09-.17a1.4 1.4 0 0 0-.1-.16l-.13-.15a.86.86 0 0 0-.13-.14.81.81 0 0 0-.14-.12 1.09 1.09 0 0 0-.17-.13L65 .27h-.07l-.18-.12-.18-.07H63.63l-.21.05-.16.06-.21.1h-.06l-53 31h-.05a1.09 1.09 0 0 0-.17.13 1.58 1.58 0 0 0-.15.12l-.12.14a.93.93 0 0 0-.13.15c0 .05-.06.1-.1.16l-.09.17a1.27 1.27 0 0 0-.06.18.6.6 0 0 0-.06.19 1 1 0 0 0 0 .17 1.8 1.8 0 0 0 0 .22L9 33v65H2a2 2 0 0 0 0 4h26a1.86 1.86 0 0 0 .67.13 2.35 2.35 0 0 0 .65-.13H126a2 2 0 0 0 0-4zM13 34.14L64 4.31l51 29.83V98H55.32V48a1.64 1.64 0 0 0 0-.22v-.17a1 1 0 0 0-.07-.24.74.74 0 0 1 0-.14L55 47l-.06-.1-.17-.21a.5.5 0 0 1-.07-.08l-.21-.18-.09-.07-.23-.12-.11-.06-.24-.08h-.13a2.71 2.71 0 0 0-.41 0L28 46.12h-.4l-.17.06-.21.06-.14.08-.19.11a.69.69 0 0 0-.13.11l-.17.14a1.71 1.71 0 0 0-.11.14s-.09.1-.13.16l-.09.17-.09.17a1.17 1.17 0 0 0-.06.2 1.09 1.09 0 0 0-.05.17.86.86 0 0 0-.06.31.88.88 0 0 0 0 .17L26.62 98H13zm17 16L51.32 50v48h-20.7z"/></g></g></symbol><symbol id="snapchat" viewBox="0 0 16 16"><path d="M15.943 11.526c-.111-.303-.323-.465-.564-.599a1.416 1.416 0 0 0-.123-.064l-.219-.111c-.752-.399-1.339-.902-1.746-1.498a3.387 3.387 0 0 1-.3-.531c-.034-.1-.032-.156-.008-.207a.338.338 0 0 1 .097-.1c.129-.086.262-.173.352-.231.162-.104.289-.187.371-.245.309-.216.525-.446.66-.702a1.397 1.397 0 0 0 .069-1.16c-.205-.538-.713-.872-1.329-.872a1.829 1.829 0 0 0-.487.065c.006-.368-.002-.757-.035-1.139-.116-1.344-.587-2.048-1.077-2.61a4.294 4.294 0 0 0-1.095-.881C9.764.216 8.92 0 7.999 0c-.92 0-1.76.216-2.505.641-.412.232-.782.53-1.097.883-.49.562-.96 1.267-1.077 2.61-.033.382-.04.772-.036 1.138a1.83 1.83 0 0 0-.487-.065c-.615 0-1.124.335-1.328.873a1.398 1.398 0 0 0 .067 1.161c.136.256.352.486.66.701.082.058.21.14.371.246l.339.221a.38.38 0 0 1 .109.11c.026.053.027.11-.012.217a3.363 3.363 0 0 1-.295.52c-.398.583-.968 1.077-1.696 1.472-.385.204-.786.34-.955.8-.128.348-.044.743.28 1.075.119.125.257.23.409.31a4.43 4.43 0 0 0 1 .4.66.66 0 0 1 .202.09c.118.104.102.26.259.488.079.118.18.22.296.3.33.229.701.243 1.095.258.355.014.758.03 1.217.18.19.064.389.186.618.328.55.338 1.305.802 2.566.802 1.262 0 2.02-.466 2.576-.806.227-.14.424-.26.609-.321.46-.152.863-.168 1.218-.181.393-.015.764-.03 1.095-.258a1.14 1.14 0 0 0 .336-.368c.114-.192.11-.327.217-.42a.625.625 0 0 1 .19-.087 4.446 4.446 0 0 0 1.014-.404c.16-.087.306-.2.429-.336l.004-.005c.304-.325.38-.709.256-1.047zm-1.121.602c-.684.378-1.139.337-1.493.565-.3.193-.122.61-.34.76-.269.186-1.061-.012-2.085.326-.845.279-1.384 1.082-2.903 1.082-1.519 0-2.045-.801-2.904-1.084-1.022-.338-1.816-.14-2.084-.325-.218-.15-.041-.568-.341-.761-.354-.228-.809-.187-1.492-.563-.436-.24-.189-.39-.044-.46 2.478-1.199 2.873-3.05 2.89-3.188.022-.166.045-.297-.138-.466-.177-.164-.962-.65-1.18-.802-.36-.252-.52-.503-.402-.812.082-.214.281-.295.49-.295a.93.93 0 0 1 .197.022c.396.086.78.285 1.002.338.027.007.054.01.082.011.118 0 .16-.06.152-.195-.026-.433-.087-1.277-.019-2.066.094-1.084.444-1.622.859-2.097.2-.229 1.137-1.22 2.93-1.22 1.792 0 2.732.987 2.931 1.215.416.475.766 1.013.859 2.098.068.788.009 1.632-.019 2.065-.01.142.034.195.152.195a.35.35 0 0 0 .082-.01c.222-.054.607-.253 1.002-.338a.912.912 0 0 1 .197-.023c.21 0 .409.082.49.295.117.309-.04.56-.401.812-.218.152-1.003.638-1.18.802-.184.169-.16.3-.139.466.018.14.413 1.991 2.89 3.189.147.073.394.222-.041.464z"/></symbol><symbol id="social-instagram" viewBox="0 0 30 30"><title>UI/Social/Icon Copy 7@2x</title><g fill="none" fill-rule="evenodd"><mask id="mask-2" fill="#fff"><use xlink:href="#path-1"/></mask><g mask="url(#mask-2)" fill="#3A3A3A"><path d="M0 0h30v30H0z"/></g><g mask="url(#mask-2)"><mask id="mask-4" fill="#fff"><use xlink:href="#path-3"/></mask><use fill="#FFF" xlink:href="#path-3"/><g mask="url(#mask-4)" fill="#FFF"><path d="M0 0h30v30H0z"/></g></g></g></symbol><symbol id="succes" viewBox="0 0 19 19"><path d="M4.75 9.685l3.416 3.774 6.045-7.917" stroke="#548B53"/><path fill-rule="evenodd" clip-rule="evenodd" d="M0 9.5a9.5 9.5 0 1 0 19 0 9.5 9.5 0 0 0-19 0zm18.208 0a8.708 8.708 0 1 1-17.416 0 8.708 8.708 0 0 1 17.416 0z" fill="#548B53"/><mask id="mask0" maskUnits="userSpaceOnUse" x="0" y="0" width="19" height="19"><path fill-rule="evenodd" clip-rule="evenodd" d="M0 9.5a9.5 9.5 0 1 0 19 0 9.5 9.5 0 0 0-19 0zm18.208 0a8.708 8.708 0 1 1-17.416 0 8.708 8.708 0 0 1 17.416 0z" fill="#fff"/></mask></symbol><symbol id="success" viewBox="0 0 24 24"><title>success</title><g fill="none" fill-rule="nonzero"><path d="M12 24C5.373 24 0 18.627 0 12S5.373 0 12 0s12 5.373 12 12-5.373 12-12 12zm0-1c6.075 0 11-4.925 11-11S18.075 1 12 1 1 5.925 1 12s4.925 11 11 11z" fill="currentColor"/><path stroke="currentColor" d="M6 12.233L10.314 17l7.637-10"/></g></symbol><symbol id="tiktok" viewBox="0 0 16 16"><path d="M9 0h1.98c.144.715.54 1.617 1.235 2.512C12.895 3.389 13.797 4 15 4v2c-1.753 0-3.07-.814-4-1.829V11a5 5 0 1 1-5-5v2a3 3 0 1 0 3 3V0z"/></symbol><symbol id="trend-arrow" viewBox="0 0 34 31"><style>.st0{fill:#3a3a3a}</style><title>icon-trend</title><path class="st0" fill="#3A3A3A" d="M13.9 11.1l7.2 8.8 8-8.7 2.6 2.2 2-8.3-7.8 3.4 2.5 2.1-7.2 7.8-7.3-9-9.7 13.5.8.6 8.9-12.4zm18.3-4.2l-1.1 4.8-3.4-2.8 4.5-2z"/><path class="st0" fill="#3A3A3A" d="M1.5.5h-1V31H33v-1H1.5z"/></symbol><symbol id="trend" viewBox="0 0 60 24"><g transform="translate(1 1)" stroke="#3A3A3A" fill="none" fill-rule="evenodd"><path d="M.935 20.113l18.71-18.71 18.71 18.71 18.71-18.71"/><circle fill="#F6F6F6" cx="19.645" cy="2.806" r="2.806"/><circle fill="#F6F6F6" cx="55.194" cy="2.806" r="2.806"/><circle fill="#F6F6F6" cx="38.355" cy="18.71" r="2.806"/><circle fill="#F6F6F6" cx="2.806" cy="18.71" r="2.806"/></g></symbol><symbol id="tumbler-circle" viewBox="0 0 30 30"><title>UI/Social/Facebook Copy 8</title><g fill="none" fill-rule="evenodd"><g><mask id="mask-2" fill="#fff"><use xlink:href="#path-1"/></mask><g mask="url(#mask-2)" fill="#3A3A3A"><path d="M0 0h30v30H0z"/></g></g><path d="M15.65 17.485c0 1.16.585 1.561 1.517 1.561h1.323v2.95h-2.505c-2.255 0-3.936-1.16-3.936-3.937v-4.445H10v-2.407c2.255-.585 3.199-2.526 3.307-4.207h2.342v3.817h2.732v2.797H15.65v3.87" fill="#FFF"/></g></symbol><symbol id="tumbler" viewBox="0 0 9 15"><title>UI/Social/Facebook Copy 9</title><g fill="none" fill-rule="evenodd"><path d="M-20.667-37.383c0 .069.034.092.09.092h.077v.174h-.148c-.132 0-.231-.068-.231-.232v-.261H-21v-.142c.133-.035.188-.149.195-.248h.138v.225h.16v.165h-.16v.227" fill="#000"/><path d="M5.65 10.485c0 1.16.585 1.561 1.517 1.561H8.49v2.95H5.985c-2.255 0-3.936-1.16-3.936-3.937V6.614H0V4.207C2.255 3.622 3.199 1.681 3.307 0H5.65v3.817h2.732v2.797H5.65v3.87" fill="#3A3A3A"/></g></symbol><symbol id="twitter-circle" viewBox="0 0 30 30"><title>UI/Social/Facebook Copy 2</title><g fill="none" fill-rule="evenodd"><g><mask id="mask-2" fill="#fff"><use xlink:href="#path-1"/></mask><g mask="url(#mask-2)" fill="#3A3A3A"><path d="M0 0h30v30H0z"/></g></g><path d="M23.643 9.716a7.176 7.176 0 0 1-2.079.577 3.663 3.663 0 0 0 1.592-2.026c-.7.42-1.474.724-2.299.889A3.597 3.597 0 0 0 18.215 8c-1.999 0-3.62 1.639-3.62 3.66 0 .287.032.566.094.834-3.008-.153-5.676-1.61-7.46-3.824-.313.54-.491 1.17-.491 1.84 0 1.27.64 2.39 1.61 3.046a3.571 3.571 0 0 1-1.64-.458v.046a3.653 3.653 0 0 0 2.904 3.59 3.601 3.601 0 0 1-1.635.062 3.63 3.63 0 0 0 3.382 2.542A7.214 7.214 0 0 1 6 20.853a10.166 10.166 0 0 0 5.549 1.644c6.658 0 10.298-5.576 10.298-10.413 0-.159-.003-.316-.01-.473a7.397 7.397 0 0 0 1.806-1.895" fill="#FFF"/></g></symbol><symbol id="twitter" viewBox="0 0 18 15"><title>UI/Social/Facebook Copy 6</title><path d="M17.643 1.716a7.176 7.176 0 0 1-2.079.577A3.663 3.663 0 0 0 17.156.267c-.7.42-1.474.724-2.299.889A3.597 3.597 0 0 0 12.215 0c-1.999 0-3.62 1.639-3.62 3.66 0 .287.032.566.094.834C5.681 4.34 3.013 2.884 1.23.67.915 1.21.737 1.84.737 2.51c0 1.27.64 2.39 1.61 3.046a3.571 3.571 0 0 1-1.64-.458v.046a3.653 3.653 0 0 0 2.904 3.59 3.601 3.601 0 0 1-1.635.062 3.63 3.63 0 0 0 3.382 2.542A7.214 7.214 0 0 1 0 12.853a10.166 10.166 0 0 0 5.549 1.644c6.658 0 10.298-5.576 10.298-10.413 0-.159-.003-.316-.01-.473a7.397 7.397 0 0 0 1.806-1.895" fill="#3A3A3A" fill-rule="evenodd"/></symbol><symbol id="video-play" viewBox="0 0 70 70"><title>UI/Play</title><path d="M35 70C15.67 70 0 54.33 0 35S15.67 0 35 0s35 15.67 35 35-15.67 35-35 35zm15.458-34.417L27.125 20.125v30.917l23.333-15.459z" fill="currentColor" fill-rule="nonzero"/></symbol><symbol id="virtual-tour-wht" viewBox="0 0 19 12"><path d="M19 4.48c0 2.05-2.64 3.74-6.73 4.3l-.13-1.06C15.54 7.25 18 5.89 18 4.48c0-1.61-3.49-3.41-8.5-3.41S1 2.87 1 4.48c0 1.41 2.47 2.77 5.87 3.24l1.11.13-2.75-2.47.65-.82 4.27 3.85L5.86 12l-.61-.85 2.67-2.23-1.17-.13C2.65 8.22 0 6.53 0 4.48 0 2 4.17 0 9.5 0S19 2 19 4.48z" fill="#fff"/></symbol><symbol id="youtube-circle" viewBox="0 0 30 30"><title>UI/Social/Facebook Copy 3</title><g fill="none" fill-rule="evenodd"><g><mask id="mask-2" fill="#fff"><use xlink:href="#path-1"/></mask><g mask="url(#mask-2)" fill="#3A3A3A"><path d="M0 0h30v30H0z"/></g></g><path d="M13.64 11.952v6.068l4.708-3.035-4.708-3.033M23 13.665v2.579c-.023.279-.049.557-.07.837-.059.791-.077 1.587-.343 2.346-.267.763-.764 1.223-1.516 1.344a9.8 9.8 0 0 1-1.018.107 83.604 83.604 0 0 1-7.841.056c-.75-.029-1.5-.086-2.245-.18-.769-.098-1.333-.538-1.561-1.357a10.93 10.93 0 0 1-.273-1.438c-.067-.485-.09-.976-.133-1.464v-3.019c.023-.227.041-.455.07-.681.092-.692.13-1.398.294-2.07.25-1.027.905-1.53 1.9-1.579 1.16-.057 2.32-.155 3.478-.145 2.378.019 4.757.076 7.134.163.856.031 1.473.539 1.725 1.44.133.477.203.977.266 1.472.066.526.09 1.059.133 1.589" fill="#FFF"/></g></symbol><symbol id="youtube" viewBox="0 0 19 15"><title>UI/Social/Facebook Copy 7</title><path d="M7.144 3.69v7.585l5.964-3.794-5.964-3.79M19 5.83v3.224c-.03.348-.062.697-.088 1.046-.075.989-.098 1.984-.435 2.932-.339.955-.968 1.53-1.92 1.681-.427.068-.858.11-1.29.133-3.31.18-6.62.198-9.932.071-.95-.036-1.9-.108-2.843-.226-.974-.122-1.69-.671-1.978-1.696-.165-.584-.262-1.193-.346-1.798C.084 10.593.054 9.98 0 9.37V5.595c.03-.284.052-.569.09-.851.115-.865.163-1.748.37-2.587C.78.872 1.609.244 2.869.183 4.336.112 5.805-.011 7.273 0c3.013.024 6.025.095 9.036.204 1.085.039 1.866.673 2.185 1.8.17.596.258 1.221.337 1.84.085.658.115 1.324.169 1.986" fill="#3A3A3A" fill-rule="evenodd"/></symbol></svg>