<svg version="1.1" xmlns="http://www.w3.org/2000/svg" xmlns:xlink="http://www.w3.org/1999/xlink"
     class="saved-properties"
     role="img"
     aria-hidden="true"
     tabindex="-1"
viewBox="0 0 20 20">
    <path class="st0"
          d="M10 19.5C4.8 19.5.5 15.2.5 10S4.8.5 10 .5s9.5 4.3 9.5 9.5-4.3 9.5-9.5 9.5zm0-18c-4.7 0-8.5 3.8-8.5 8.5s3.8 8.5 8.5 8.5 8.5-3.8 8.5-8.5-3.8-8.5-8.5-8.5z"
          fill="#AAA"/>
    <path class="st2" d="M8.9 5.7c0-.5.4-.9.9-.9s.9.4.9.9-.4.9-.9.9-.9-.4-.9-.9zm.2 2.1h1.3V15H9.1V7.8z"
          fill="#3A3A3A"/>
</svg>
