<?xml version="1.0" encoding="UTF-8"?>
<svg width="30px" height="30px" viewBox="0 0 30 30" version="1.1" xmlns="http://www.w3.org/2000/svg" xmlns:xlink="http://www.w3.org/1999/xlink">
    <!-- Generator: Sketch 53.2 (72643) - https://sketchapp.com -->
    <title>UI/Social/Icon Copy 5@2x</title>
    <desc>Created with Sketch.</desc>
    <defs>
        <path d="M15,0 L15,0 C23.2842712,-1.52179594e-15 30,6.71572875 30,15 L30,15 C30,23.2842712 23.2842712,30 15,30 L15,30 C6.71572875,30 1.01453063e-15,23.2842712 0,15 L0,15 C-1.01453063e-15,6.71572875 6.71572875,1.52179594e-15 15,0 Z" id="path-1"></path>
        <path d="M21.3260936,20.7597196 L18.5262768,20.7597196 L18.5262768,20.6837298 C18.5261861,19.1302496 18.5271995,17.576785 18.5251121,16.0233048 C18.5246734,15.6874399 18.4945272,15.3541325 18.3900062,15.0328169 C18.3030919,14.765675 18.1655356,14.5351013 17.9272247,14.3828253 C17.7144617,14.2468607 17.4775877,14.2066592 17.2322886,14.2116025 C16.686465,14.2226119 16.2999793,14.4995312 16.0319457,14.9771461 C15.8838012,15.2411067 15.8256264,15.5249966 15.825823,15.8267728 C15.8268667,17.4445629 15.8263071,19.0623686 15.8263071,20.6801587 L15.8263071,20.75855 L13.0048751,20.75855 L13.0048751,12.1940587 L15.8160213,12.1940587 L15.8160213,13.3753711 C15.8223289,13.3759013 15.8286365,13.3764159 15.8349289,13.3769305 C15.8990785,13.2842238 15.9620331,13.1906127 16.0275592,13.0989508 C16.4247844,12.5432409 16.9472079,12.1858718 17.6101071,12.0706941 C18.3335861,11.9449904 19.0376886,12.0136199 19.7010566,12.358654 C20.2656516,12.6523057 20.6634365,13.1139835 20.9309407,13.6987607 C21.1267323,14.1267552 21.2397541,14.5798562 21.2823339,15.0495649 C21.3079877,15.332332 21.3235373,15.6171419 21.3242331,15.9010785 C21.3281205,17.4935283 21.3260936,19.0859936 21.3260936,20.6784434 L21.3260936,20.7597196 Z M11.6887242,20.762369 L11.6285982,20.762369 C10.7494721,20.762369 9.87033092,20.7616985 8.99120487,20.7638661 C8.93209227,20.7639908 8.92015782,20.7465411 8.92012756,20.6887963 C8.91932588,19.1042215 8.91698134,17.5196468 8.91419815,15.9350408 C8.91274605,15.1067156 8.90984185,14.2783903 8.90787546,13.4500495 C8.90693765,13.0524477 8.9066805,12.654846 8.90610571,12.2572599 C8.90609059,12.2380012 8.90610571,12.2187581 8.90609899,12.195102 L11.6887242,12.195102 L11.6887242,20.762369 Z M10.2598297,8.1644103 C10.5723642,8.17710386 10.8689558,8.23993233 11.1354919,8.41385287 C11.4890936,8.64456698 11.688818,8.98146104 11.7501087,9.40328035 C11.8132903,9.83815188 11.7135642,10.23159 11.4298751,10.5658175 C11.2142835,10.8198135 10.9366297,10.9661326 10.617939,11.0293353 C10.2437659,11.103563 9.87346504,11.0880781 9.52609529,10.9164343 C8.99775748,10.6553898 8.73548689,10.2097271 8.73445832,9.60898158 C8.73326336,8.90687465 9.18479109,8.35433035 9.86175748,8.21777317 C9.99280958,8.19134124 10.1270533,8.18176649 10.2598297,8.1644103 Z" id="path-3"></path>
    </defs>
    <g id="△-Standard-Property-Detail" stroke="none" stroke-width="1" fill="none" fill-rule="evenodd">
        <g id="Desktop/PropertyDetail/Standard/Share" transform="translate(-1172.000000, -490.000000)">
            <g id="Modal/Sidebar/MortgageCalculator/Share" transform="translate(1030.000000, 190.000000)">
                <g id="Group" transform="translate(44.000000, 38.000000)">
                    <g id="UI/Social/Icon" transform="translate(98.000000, 262.000000)">
                        <mask id="mask-2" fill="white">
                            <use xlink:href="#path-1"></use>
                        </mask>
                        <g id="Mask"></g>
                        <g id="Colors/Solid/Dark-Gray" mask="url(#mask-2)" fill="#3A3A3A" fill-rule="evenodd">
                            <rect id="3A3A3A" x="0" y="0" width="30" height="30"></rect>
                        </g>
                        <g id="UI/Social/White-Linkedin" mask="url(#mask-2)">
                            <mask id="mask-4" fill="white">
                                <use xlink:href="#path-3"></use>
                            </mask>
                            <use id="Mask" fill="#FFFFFF" fill-rule="evenodd" xlink:href="#path-3"></use>
                            <g id="Colors/Solid/White" mask="url(#mask-4)" fill="#FFFFFF" fill-rule="evenodd">
                                <rect id="COLORS/Purple---#552548" x="0" y="0" width="30" height="30"></rect>
                            </g>
                        </g>
                    </g>
                </g>
            </g>
        </g>
    </g>
</svg>