<?xml version="1.0" encoding="UTF-8"?><svg id="Mark" xmlns="http://www.w3.org/2000/svg" width="750" height="345.01" viewBox="0 0 750 345.01"><path d="M234.45,125.51l.44-6.66c.11-1.7,.67-3,1.57-3.8,.7-.61,1.55-.9,2.52-.83h.04c1.78,.12,2.67,1.21,3.16,2.35,.71-1.7,1.78-2.84,3.8-2.71h.04c2.65,.18,3.92,2.46,3.7,5.77l-.46,6.87-14.83-.99Zm4.79-8.65c-1.17-.08-1.95,.81-2.06,2.48l-.25,3.75,3.94,.26,.24-3.56c.11-1.68-.47-2.84-1.83-2.94h-.04Zm4.11,2.51l-.28,4.14,4.07,.27,.29-4.33c.12-1.76-.51-2.91-1.84-3h-.04c-1.25-.09-2.06,.86-2.19,2.92Zm-6.19-17.41l2.69-10.7,2.27,.57-2.05,8.16,3.75,.95,1.82-7.24,2.29,.58-1.82,7.23,3.85,.97,2.08-8.27,2.27,.57-2.72,10.8-14.41-3.63Zm6.55-21.68l2.75-6.03c.78-1.7,1.89-2.81,3.13-3.29,1.06-.38,2.25-.33,3.43,.21l.04,.02c2.22,1.01,2.94,2.96,2.63,5.08l6.78-1.31-1.29,2.82-6.23,1.17-1.36,2.98,4.71,2.15-1.08,2.38-13.51-6.18Zm9.37-2.79c.78-1.7,.38-3.19-.99-3.82l-.04-.02c-1.45-.66-2.72,.02-3.52,1.78l-1.58,3.46,4.54,2.07,1.59-3.48Zm1.52-18.38l1.51-2.14,6.11,4.31-2.05-10.09,1.87-2.66,1.65,8.77,10.66-.41-1.84,2.61-8.4,.3,.61,3.27,3.53,2.49-1.51,2.14-12.16-8.58Zm22.68-8.82l-.2-2.44c1.88-.13,3.4-.65,4.69-1.94,1.15-1.14,1.33-2.4,.55-3.19l-.03-.03c-.75-.75-1.57-.74-3.98,.75-2.78,1.69-4.71,2.28-6.64,.34l-.03-.03c-1.8-1.81-1.53-4.56,.56-6.64,1.54-1.53,3.22-2.27,5.14-2.48l.4,2.39c-1.65,.23-2.97,.8-3.94,1.76-1.08,1.08-1.17,2.27-.48,2.96l.03,.03c.81,.81,1.65,.7,4.16-.84,2.77-1.67,4.71-2.01,6.44-.26l.03,.03c1.96,1.98,1.58,4.7-.64,6.9-1.61,1.6-3.69,2.56-6.08,2.69Zm8.03-24.49l2.15-1.48,3.49,5.1,5.85-4.01-3.49-5.1,2.15-1.48,8.41,12.27-2.15,1.48-3.54-5.17-5.84,4.02,3.54,5.17-2.15,1.48-8.41-12.27Zm20.74-12.71l2.35-1.14,6.46,13.4-2.35,1.14-6.46-13.4Zm13.41-5.84l6.32-1.96c1.78-.55,3.35-.46,4.54,.15,.99,.54,1.74,1.46,2.12,2.7v.04c.73,2.34-.23,4.17-2.02,5.35l5.5,4.19-2.96,.92-5.02-3.87-3.12,.97,1.53,4.95-2.49,.77-4.39-14.21Zm8.32,5.14c1.78-.55,2.63-1.84,2.18-3.28v-.04c-.48-1.52-1.83-2.02-3.68-1.44l-3.63,1.12,1.48,4.77,3.65-1.13Zm14.63-11.06l10.94-1.32,.28,2.32-8.35,1.01,.46,3.84,7.4-.89,.28,2.34-7.4,.89,.48,3.95,8.45-1.02,.28,2.32-11.05,1.33-1.78-14.78Zm36.48-.71l2.57,.44-1.05,6.1,6.99,1.21,1.05-6.1,2.57,.45-2.53,14.67-2.57-.45,1.07-6.18-6.99-1.21-1.06,6.18-2.57-.44,2.53-14.67Zm29.06,7.14l2.26,.87,.74,16.35-2.58-.99-.12-3.9-6.56-2.52-2.71,2.81-2.5-.96,11.47-11.65Zm.24,9.82l-.27-6.48-4.51,4.65,4.78,1.84Zm17.9,1.55l-4.07-2.42,1.24-2.09,10.39,6.17-1.23,2.08-4.07-2.42-6.35,10.71-2.25-1.33,6.34-10.71Zm16.56,8.15l1.97,1.72-4.06,4.67,5.36,4.66,4.06-4.67,1.97,1.72-9.76,11.24-1.97-1.72,4.11-4.74-5.36-4.66-4.11,4.74-1.97-1.72,9.76-11.24Zm21.15,21.16l1.49,1.91-7.8,14.39-1.7-2.18,1.91-3.4-4.32-5.56-3.77,1-1.64-2.12,15.84-4.04Zm-4.86,8.54l3.12-5.69-6.26,1.65,3.15,4.05Zm14.93,5.43l1.23,2.55-8.38,8.01,11.55-1.54,.96,1.99-8.37,8.13,11.47-1.62,1.19,2.47-15.73,1.88-.99-2.05,8.03-7.96-11.21,1.37-.99-2.05,11.23-11.19Zm13.79,34.25l.57,2.36-13,9.91-.65-2.69,3.13-2.32-1.66-6.84-3.85-.64-.63-2.6,16.1,2.82Zm-7.93,5.78l5.17-3.91-6.38-1.07,1.21,4.98Zm2.39,16.34l8.58-6.52,.21,3.1-6.26,4.59,6.84,3.75,.21,2.99-9.33-5.28-5.91,.41-.18-2.63,5.85-.4Zm-237.19,36.92h.04c1.6-.42,3.24,.59,3.65,2.17,.4,1.56-.55,3.23-2.16,3.64h-.04c-1.6,.42-3.24-.56-3.64-2.15-.41-1.61,.55-3.26,2.15-3.67Zm21.94,33.87l1.52,2.13-5.02,3.6,4.12,5.77,5.02-3.6,1.52,2.13-12.09,8.65-1.52-2.13,5.09-3.65-4.12-5.77-5.09,3.65-1.52-2.13,12.09-8.65Zm7.54,22l.03-.03c2.87-3.05,7.62-3.4,10.95-.27,3.33,3.13,3.28,7.84,.42,10.9l-.03,.03c-2.86,3.06-7.62,3.4-10.95,.27-3.33-3.13-3.28-7.84-.42-10.9Zm9.34,8.78l.03-.03c1.98-2.11,2.07-5.29-.08-7.31-2.15-2.02-5.26-1.73-7.23,.38l-.03,.03c-1.98,2.11-2.07,5.29,.08,7.31,2.15,2.02,5.25,1.73,7.23-.38Zm13.9,1.55l2.38,1.45,.2,8.37,7.52-3.65,2.38,1.45-7.75,12.71-2.23-1.36,5.55-9.11-7.66,3.54-.07-.04-.34-8.38-5.53,9.08-2.19-1.34,7.74-12.71Zm20.82,11.46l10.33,3.85-.82,2.19-7.88-2.94-1.35,3.63,6.99,2.6-.82,2.21-6.99-2.6-1.38,3.73,7.98,2.97-.81,2.19-10.43-3.88,5.18-13.95Zm15.42,18.42l1.89-1.55c1.17,1.48,2.46,2.43,4.26,2.77,1.59,.3,2.73-.27,2.93-1.36v-.04c.2-1.04-.28-1.72-2.87-2.85-2.97-1.33-4.55-2.58-4.05-5.28v-.04c.48-2.51,2.89-3.85,5.79-3.31,2.13,.4,3.7,1.36,4.96,2.83l-1.74,1.69c-1.13-1.23-2.35-2-3.68-2.25-1.5-.28-2.52,.33-2.7,1.29v.04c-.22,1.13,.36,1.76,3.05,2.95,2.95,1.33,4.33,2.73,3.88,5.16v.04c-.52,2.74-2.97,3.97-6.04,3.39-2.23-.42-4.2-1.59-5.66-3.48Zm22.14-9.58l11.02,.18-.04,2.34-8.41-.13-.06,3.87,7.46,.12-.04,2.36-7.45-.12-.06,3.98,8.52,.14-.04,2.34-11.13-.18,.24-14.89Zm19.69-.44l6.54-1.06c1.84-.3,3.38,.01,4.47,.78,.9,.67,1.52,1.69,1.73,2.97v.04c.4,2.41-.81,4.1-2.75,5.01l4.86,4.92-3.06,.5-4.43-4.53-3.23,.52,.83,5.12-2.58,.42-2.38-14.69Zm7.53,6.25c1.84-.3,2.86-1.46,2.62-2.95v-.04c-.26-1.57-1.53-2.25-3.44-1.94l-3.75,.61,.8,4.93,3.77-.61Zm11.18-9.85l2.72-.98,8.07,9.25,.34-12.27,2.66-.96-.74,16.19-2.2,.79-10.85-12.03Zm21.18-8.72l2.3-1.24,7.03,13.11-2.3,1.24-7.03-13.11Zm14.52,.27l-.03-.03c-2.52-3.39-2.06-8.07,1.54-10.75,2.21-1.65,4.11-1.87,6.07-1.63l-.19,2.55c-1.63-.16-3.07,0-4.45,1.04-2.25,1.68-2.53,4.78-.8,7.12l.03,.03c1.74,2.34,4.8,3,7.08,1.29,1.46-1.09,1.97-2.37,2.28-4.09l2.36,.36c-.28,2.22-1.03,4.06-3.26,5.72-3.49,2.6-8.08,1.81-10.63-1.62Zm12.41-19.71l7.52-8.06,1.71,1.6-5.74,6.15,2.82,2.64,5.09-5.45,1.72,1.61-5.09,5.45,2.9,2.71,5.81-6.23,1.71,1.6-7.59,8.14-10.86-10.16Zm22.91-7.14l-.7-2.34c1.81-.51,3.19-1.33,4.19-2.86,.89-1.35,.81-2.62-.11-3.23l-.04-.02c-.89-.59-1.69-.4-3.74,1.56-2.38,2.22-4.14,3.2-6.43,1.7l-.04-.02c-2.13-1.4-2.43-4.15-.81-6.62,1.19-1.81,2.68-2.89,4.52-3.48l.88,2.26c-1.57,.57-2.75,1.4-3.49,2.53-.84,1.28-.67,2.46,.14,2.99l.04,.02c.96,.63,1.76,.34,3.9-1.68,2.36-2.21,4.19-2.94,6.25-1.58l.04,.02c2.32,1.53,2.5,4.27,.79,6.88-1.25,1.9-3.08,3.26-5.39,3.88Zm15.04-44.6h-.04c-1.62-.37-2.62-2.02-2.26-3.62,.35-1.58,1.97-2.63,3.58-2.26h.04c1.62,.37,2.62,2,2.26,3.59-.36,1.62-1.97,2.65-3.59,2.28Zm-179.8-55.88h0c1.11,0,2.01,.9,2.01,2.01v47.92c0,.24,.19,.44,.43,.44h29.42c1.02,0,1.85,.83,1.85,1.85h0c0,1.02-.83,1.85-1.85,1.85h-31.61c-1.24,0-2.25-1.01-2.25-2.26v-49.8c0-1.11,.9-2.01,2.01-2.01Zm60.74-41.47V202.6m1.71-1.72V62.62c0-.95-.77-1.72-1.71-1.72h0c-.95,0-1.71,.77-1.71,1.72V200.88c0,.95,.77,1.72,1.71,1.72h0c.95,0,1.71-.77,1.71-1.72Zm22.27-71.32v-.15c0-15.29,11.42-27.96,27-27.96,8.76,0,14.34,2.94,19.46,7.3,.84,.71,.92,1.98,.15,2.77l-.2,.21c-.69,.71-1.83,.77-2.57,.11-4.41-3.94-9.54-6.75-16.91-6.75-12.96,0-22.76,10.58-22.76,24.18v.15c0,13.67,9.95,24.33,22.83,24.33,7.17,0,12.25-2.55,17.28-7.17,.74-.68,1.88-.69,2.6,.01h0c.78,.76,.75,2.02-.06,2.76-5.32,4.86-11.23,8.03-19.98,8.03-15.43,0-26.84-12.28-26.84-27.81ZM0,300.97H3.19v40.86H28.36v2.87H0v-43.73Zm43.01,39.23c-3.06-3.21-4.59-7.89-4.59-14.06v-25.18h3.19v25.05c0,5.37,1.23,9.39,3.69,12.06,2.46,2.66,6.02,4,10.68,4s8.16-1.33,10.62-4c2.46-2.66,3.69-6.69,3.69-12.06v-25.05h3.19v25.18c0,6.16-1.54,10.85-4.62,14.06-3.08,3.21-7.39,4.81-12.93,4.81s-9.84-1.6-12.9-4.81Zm75.25,4.5l-15.06-20.24-14.99,20.24h-3.75l16.81-22.55-15.62-21.18h3.75l13.93,18.81,13.93-18.81h3.56l-15.62,21.12,16.81,22.61h-3.75Zm19.4-4.5c-3.06-3.21-4.59-7.89-4.59-14.06v-25.18h3.19v25.05c0,5.37,1.23,9.39,3.69,12.06,2.46,2.66,6.02,4,10.68,4s8.16-1.33,10.62-4,3.69-6.69,3.69-12.06v-25.05h3.19v25.18c0,6.16-1.54,10.85-4.62,14.06-3.08,3.21-7.39,4.81-12.93,4.81s-9.84-1.6-12.9-4.81Zm78.81,4.5l-10.43-14.62c-1.54,.21-2.96,.31-4.25,.31h-12.49v14.31h-3.19v-43.73h15.68c5.5,0,9.81,1.3,12.93,3.9,3.12,2.6,4.69,6.22,4.69,10.84,0,3.46-.88,6.36-2.65,8.71-1.77,2.35-4.3,4.01-7.59,4.97l10.93,15.31h-3.62Zm-14.68-17.12c4.67,0,8.23-1.03,10.68-3.09,2.46-2.06,3.69-4.99,3.69-8.78s-1.23-6.72-3.69-8.78c-2.46-2.06-6.02-3.09-10.68-3.09h-12.49v23.74h12.49Zm45.3,2.06v15.05h-3.19v-15.05l-17.62-28.68h3.5l15.81,25.74,15.81-25.74h3.31l-17.62,28.68Zm54.76,12.49c-3.44-1.92-6.14-4.56-8.12-7.93-1.98-3.37-2.97-7.16-2.97-11.37s.99-8,2.97-11.37c1.98-3.37,4.69-6.02,8.12-7.93,3.44-1.92,7.3-2.87,11.59-2.87,3.17,0,6.08,.51,8.75,1.53s4.94,2.53,6.81,4.53l-2,2.06c-3.5-3.46-7.98-5.19-13.43-5.19-3.67,0-7,.83-10,2.5-3,1.67-5.35,3.97-7.06,6.9-1.71,2.94-2.56,6.22-2.56,9.84s.85,6.9,2.56,9.84c1.71,2.94,4.06,5.24,7.06,6.9,3,1.67,6.33,2.5,10,2.5,5.41,0,9.89-1.75,13.43-5.25l2,2.06c-1.87,2-4.15,3.52-6.84,4.56s-5.59,1.56-8.72,1.56c-4.29,0-8.15-.96-11.59-2.87Zm46.95-.03c-3.46-1.94-6.17-4.59-8.15-7.97-1.98-3.37-2.97-7.14-2.97-11.31s.99-7.93,2.97-11.31c1.98-3.37,4.69-6.03,8.15-7.97,3.46-1.94,7.33-2.91,11.62-2.91s8.16,.96,11.62,2.87c3.46,1.91,6.17,4.56,8.15,7.93,1.98,3.37,2.97,7.17,2.97,11.37s-.99,8-2.97,11.37c-1.98,3.37-4.7,6.02-8.15,7.93-3.46,1.92-7.33,2.87-11.62,2.87s-8.16-.97-11.62-2.91Zm21.55-2.53c2.96-1.67,5.29-3.97,7-6.9,1.71-2.94,2.56-6.22,2.56-9.84s-.85-6.9-2.56-9.84c-1.71-2.94-4.04-5.24-7-6.9-2.96-1.67-6.27-2.5-9.93-2.5s-6.99,.83-9.96,2.5c-2.98,1.67-5.32,3.97-7.03,6.9-1.71,2.94-2.56,6.22-2.56,9.84s.85,6.9,2.56,9.84c1.71,2.94,4.05,5.24,7.03,6.9,2.98,1.67,6.3,2.5,9.96,2.5s6.97-.83,9.93-2.5Zm26.99-38.61h3.19v40.86h25.18v2.87h-28.36v-43.73Zm39.67,0h3.19v40.86h25.18v2.87h-28.36v-43.73Zm69.85,40.86v2.87h-30.17v-43.73h29.24v2.87h-26.05v17.24h23.3v2.81h-23.3v17.93h26.99Zm21.4,.31c-3.44-1.92-6.14-4.56-8.12-7.93-1.98-3.37-2.97-7.16-2.97-11.37s.99-8,2.97-11.37c1.98-3.37,4.69-6.02,8.12-7.93,3.44-1.92,7.3-2.87,11.59-2.87,3.17,0,6.08,.51,8.75,1.53s4.94,2.53,6.81,4.53l-2,2.06c-3.5-3.46-7.98-5.19-13.43-5.19-3.67,0-7,.83-10,2.5-3,1.67-5.35,3.97-7.06,6.9-1.71,2.94-2.56,6.22-2.56,9.84s.85,6.9,2.56,9.84c1.71,2.94,4.06,5.24,7.06,6.9,3,1.67,6.33,2.5,10,2.5,5.41,0,9.89-1.75,13.43-5.25l2,2.06c-1.87,2-4.15,3.52-6.84,4.56s-5.59,1.56-8.72,1.56c-4.29,0-8.15-.96-11.59-2.87Zm48.76-38.3h-15.74v-2.87h34.67v2.87h-15.74v40.86h-3.19v-40.86Zm29.93-2.87h3.19v43.73h-3.19v-43.73Zm28.49,41.14c-3.46-1.94-6.17-4.59-8.15-7.97-1.98-3.37-2.97-7.14-2.97-11.31s.99-7.93,2.97-11.31c1.98-3.37,4.69-6.03,8.15-7.97,3.46-1.94,7.33-2.91,11.62-2.91s8.16,.96,11.62,2.87c3.46,1.91,6.17,4.56,8.15,7.93,1.98,3.37,2.97,7.17,2.97,11.37s-.99,8-2.97,11.37c-1.98,3.37-4.7,6.02-8.15,7.93-3.46,1.92-7.33,2.87-11.62,2.87s-8.16-.97-11.62-2.91Zm21.55-2.53c2.96-1.67,5.29-3.97,7-6.9,1.71-2.94,2.56-6.22,2.56-9.84s-.85-6.9-2.56-9.84c-1.71-2.94-4.04-5.24-7-6.9-2.96-1.67-6.27-2.5-9.93-2.5s-6.99,.83-9.96,2.5c-2.98,1.67-5.32,3.97-7.03,6.9-1.71,2.94-2.56,6.22-2.56,9.84s.85,6.9,2.56,9.84c1.71,2.94,4.05,5.24,7.03,6.9,2.98,1.67,6.3,2.5,9.96,2.5s6.97-.83,9.93-2.5Zm62.6-38.61v43.73h-2.63l-29.8-37.98v37.98h-3.19v-43.73h2.69l29.74,37.98v-37.98h3.19Zm9.97,7.36c-.74-.24-1.31-.56-1.73-.95l.55-1.17c.4,.36,.91,.65,1.54,.88,.62,.22,1.27,.34,1.93,.34,.87,0,1.52-.15,1.95-.44,.43-.29,.65-.69,.65-1.18,0-.36-.12-.65-.35-.88s-.52-.4-.87-.52c-.34-.12-.83-.25-1.46-.41-.79-.19-1.43-.38-1.91-.57-.49-.19-.9-.48-1.25-.88s-.52-.93-.52-1.6c0-.56,.15-1.06,.44-1.51,.3-.45,.74-.81,1.34-1.08,.6-.27,1.35-.41,2.24-.41,.62,0,1.23,.08,1.83,.24,.6,.16,1.12,.39,1.54,.69l-.5,1.2c-.44-.28-.91-.49-1.41-.64-.5-.14-.99-.22-1.47-.22-.85,0-1.49,.16-1.91,.46-.43,.31-.64,.71-.64,1.2,0,.36,.12,.65,.36,.88,.24,.22,.54,.4,.89,.52,.35,.13,.84,.26,1.45,.4,.79,.19,1.42,.38,1.91,.57,.48,.19,.89,.48,1.24,.87,.34,.39,.52,.92,.52,1.58,0,.55-.15,1.05-.45,1.51-.3,.45-.76,.81-1.37,1.08-.61,.26-1.36,.4-2.25,.4-.79,0-1.55-.12-2.29-.37Zm19.02,.25l-.02-7.65-3.79,6.37h-.69l-3.79-6.33v7.6h-1.44v-10.5h1.23l4.38,7.38,4.32-7.38h1.23v10.5s-1.42,0-1.42,0Z"/></svg>