<svg version="1.1" xmlns="http://www.w3.org/2000/svg" xmlns:xlink="http://www.w3.org/1999/xlink"
     class="price-tags"
     role="img"
     aria-hidden="true"
     tabindex="-1" viewBox="0 0 38 36">
    <path class="st0"
          d="M37.3 23.2L21.7 4.7l-5.2-.5-1.9-2.3L2.2.7c-.6 0-1 .4-1.1.9L.1 14l16 19.1c.2.2.5.4.8.4.2 0 .5-.1.6-.2l2.8-2.3 3.2 3.9c.2.2.4.3.7.4h.1c.2 0 .5-.1.6-.2l12.3-10.3c.2-.2.3-.4.4-.7-.1-.4-.1-.7-.3-.9zm-20.4 9.3L1.1 13.7l1-12 12 1.1 1 1.2 14.7 17.5-10.3 8.6-2.6 2.4zm7.4 1.6L21 30.3l9.5-8c.2-.2.3-.4.4-.7 0-.3-.1-.5-.2-.7L17.5 5.2l3.7.4 15.3 18.2-12.2 10.3z"/>
    <path class="st0"
          d="M6.2 5.7c-.7-.1-1.3.1-1.8.5s-.8 1-.9 1.7c-.1.7.1 1.3.6 1.9.5.6 1.2.9 1.9.9.6 0 1.1-.2 1.6-.6.5-.4.8-1 .9-1.7s-.2-1.3-.6-1.9-1.1-.8-1.7-.8zm.7 3.6c-.6.5-1.6.5-2.1-.2-.2-.3-.4-.7-.3-1.1 0-.4.2-.8.5-1 .3-.2.6-.4 1-.4s.9.2 1.2.5c.3.3.4.7.3 1.1-.1.5-.3.8-.6 1.1z"/>
    <g>
        <path class="st0" d="M4.7 6.6c-.8.7-1 2-.2 2.8.7.8 2 1 2.8.2.8-.7 1-2 .2-2.8-.7-.8-2-.9-2.8-.2z"/>
        <path class="st0"
              d="M6 10.7c-.7 0-1.4-.3-1.9-.9-.5-.6-.7-1.2-.6-1.9.1-.7.4-1.3.9-1.7 1-.8 2.6-.7 3.5.3.4.5.6 1.2.6 1.8s-.4 1.3-.9 1.7c-.5.5-1.1.7-1.6.7zm0-4c-.4 0-.7.1-1 .3-.3.3-.5.6-.5 1s.1.8.3 1.1c.5.6 1.5.7 2.1.2.6-.5.7-1.5.2-2.1-.3-.3-.6-.5-1-.5H6z"/>
    </g>
</svg>
