<svg xmlns:xlink="http://www.w3.org/1999/xlink" version="1.1" xmlns="http://www.w3.org/2000/svg"
     class="saved-searches"
     role="img"
     aria-hidden="true"
     tabindex="-1"
     viewBox="0 0 14 14">
    <path d="M13.88 13.305a.407.407 0 1 1-.575.576l-3.79-3.79a5.724 5.724 0 0 1-3.765 1.41C2.58 11.5 0 8.92 0 5.75 0 2.58 2.58 0 5.75 0c3.171 0 5.751 2.58 5.751 5.75 0 1.44-.533 2.756-1.41 3.766l3.79 3.789zM.815 5.75a4.942 4.942 0 0 0 4.936 4.937 4.942 4.942 0 0 0 4.937-4.937A4.942 4.942 0 0 0 5.75.814 4.942 4.942 0 0 0 .814 5.75z"
          fill="currentColor" fill-rule="evenodd"/>
</svg>
