<svg aria-hidden="true"
     focusable="false"
     data-prefix="fal"
     data-icon="house"
     class="svg-inline--fa fa-search"
     role="img"
     xmlns="http://www.w3.org/2000/svg"
     viewBox="0 0 22 22">
    <path d="M1.28 9.036c0-4.277 3.48-7.757 7.756-7.757 4.278 0 7.758 3.48 7.758 7.757 0 4.277-3.48 7.757-7.758 7.757-4.277 0-7.757-3.48-7.757-7.757m20.533 11.872l-5.954-5.954a8.997 8.997 0 0 0 2.215-5.918C18.073 4.054 14.019 0 9.036 0 4.053 0 0 4.054 0 9.037c0 4.982 4.053 9.036 9.036 9.036 2.262 0 4.33-.837 5.917-2.215l5.955 5.954a.638.638 0 0 0 .904 0 .64.64 0 0 0 0-.904"
          fill="#3A3A3A" fill-rule="evenodd"/>
</svg>
