<?xml version="1.0" encoding="UTF-8"?>
<svg width="30px" height="30px" viewBox="0 0 30 30" version="1.1" xmlns="http://www.w3.org/2000/svg" xmlns:xlink="http://www.w3.org/1999/xlink">
    <!-- Generator: Sketch 50.2 (55047) - http://www.bohemiancoding.com/sketch -->
    <title>UI/Social/Facebook Copy 2</title>
    <desc>Created with Sketch.</desc>
    <defs>
        <rect id="path-1" x="0" y="0" width="30" height="30" rx="15"></rect>
    </defs>
    <g id="----◼︎-UI-Elements" stroke="none" stroke-width="1" fill="none" fill-rule="evenodd">
        <g id="UI-Elements/Icons" transform="translate(-754.000000, -259.000000)">
            <g id="UI/Social/Twitter" transform="translate(754.000000, 259.000000)">
                <g id="Group-2" stroke-width="1">
                    <g id="COLORS/App/Green---9AA268">
                        <mask id="mask-2" fill="white">
                            <use xlink:href="#path-1"></use>
                        </mask>
                        <g id="Mask"></g>
                        <g id="Colors/Dark-Gray" mask="url(#mask-2)" fill="#3A3A3A">
                            <rect id="3A3A3A" x="0" y="0" width="30" height="30"></rect>
                        </g>
                    </g>
                </g>
                <path d="M23.6432224,9.71628834 C22.9940328,10.0074372 22.2966517,10.2039526 21.5642224,10.2925456 C22.3117862,9.83951317 22.8857017,9.12190974 23.1557328,8.26738983 C22.4563603,8.68699857 21.6817138,8.99143639 20.8572828,9.15573616 C20.1969414,8.44457586 19.2562138,8 18.2151207,8 C16.2161741,8 14.5951914,9.6389708 14.5951914,11.659697 C14.5951914,11.9468189 14.6274517,12.2258869 14.6891845,12.4936794 C11.6806086,12.3414605 9.01335517,10.8841054 7.22828276,8.66968266 C6.91643276,9.21050276 6.73800517,9.83911048 6.73800517,10.5100012 C6.73800517,11.7797002 7.37723793,12.8995965 8.34823448,13.5559902 C7.75480345,13.5370635 7.19681897,13.372361 6.70893103,13.0981254 C6.70853276,13.1138305 6.70853276,13.1291329 6.70853276,13.1444354 C6.70853276,14.9175038 7.95633103,16.3970071 9.61236207,16.7332579 C9.30847759,16.8166159 8.98866207,16.8613151 8.65849138,16.8613151 C8.4255,16.8613151 8.19848276,16.8387641 7.97743966,16.7956757 C8.43824483,18.2498093 9.77485862,19.3076904 11.3588017,19.3378926 C10.1197655,20.3192616 8.55932069,20.9043782 6.86346207,20.9043782 C6.57112759,20.9043782 6.28317414,20.8866596 6,20.8532359 C7.60186552,21.8913849 9.50442931,22.4974417 11.5487793,22.4974417 C18.2067569,22.4974417 21.8473966,16.920914 21.8473966,12.084138 C21.8473966,11.925476 21.8438121,11.7676194 21.8370414,11.6105681 C22.5443793,11.0947151 23.1581224,10.4499996 23.6432224,9.71628834" id="Fill-10" fill="#FFFFFF"></path>
            </g>
        </g>
    </g>
</svg>