<svg id="logo" xmlns="http://www.w3.org/2000/svg" width="823.24" height="133.52" viewBox="0 0 823.24 133.52"><path id="corporate" d="M304.07,143.15h-7.81V107h7.81Zm-231,0H50V107H72.25c7.37,0,11.6,3.55,11.6,9.74a8.32,8.32,0,0,1-4.52,7.61,9,9,0,0,1,5.55,8.56C84.88,139.22,80.34,143.14,73,143.14ZM57.52,121.49H71.11c4.38,0,5.29-2.15,5.29-4,0-2.55-1.88-4-5.29-4H57.52Zm14.62,15c3.18,0,5.15-1.65,5.15-4.3s-2-4.31-5.15-4.31H57.52v8.61Zm52-.2H98.87V128h22.59v-6.77H98.87v-7.42h25.26V107h-33v36.14h33Zm262-22.5V107h-33v36.14h33v-6.82H360.88V128h22.59v-6.77H360.88v-7.42ZM157.81,129.09l8.61,14h-8.5L150,129.9H138.92v13.24h-7.81V107h21.31c8.14,0,13,4.29,13,11.47C165.43,123.7,162.66,127.55,157.81,129.09Zm-.15-10.57c0-3.09-2.15-4.8-6-4.8h-12.7v9.55h12.7C155.46,123.27,157.66,121.54,157.66,118.52Zm162.48,24.62h-7.81V107h21.31c8.15,0,13,4.29,13,11.47,0,5.23-2.77,9.08-7.62,10.62l8.61,14h-8.5l-7.89-13.24H320.14Zm0-19.87h12.7c3.84,0,6-1.73,6-4.75s-2.15-4.8-6-4.8h-12.7Zm-91,13.65c-3.62,0-10.34-.92-14.63-7l-.19-.26-5,5.5.11.17c3.22,4.94,11.2,8.4,19.4,8.4,10.53,0,17.07-4.59,17.07-12,0-7.85-6.83-9.27-16.48-10.43-8.39-1-10.08-1.6-10.08-4,0-2,1.79-4.15,8-4.15,5.62,0,10.29,2,12.81,5.45l.18.24,4.94-5-.12-.18c-3.11-4.38-10-7.21-17.44-7.21-9.57,0-16,4.67-16,11.63,0,7.52,7,9,14.75,9.93l.17,0C236,129.1,238,129.39,238,132.51,238,135.15,234.73,136.92,229.16,136.92ZM85.81,181.74v-21H78v14.19H57.81V160.73H50v36.14h7.81V181.74H78v15.13h7.81Zm35.33,6.84H102.51l-3.92,8.29H90.17l17.4-36.14h8.55l17.41,36.14H125ZM118,181.86l-6.13-13.07-6.17,13.07Zm120.12-21.13,17.4,36.14H247l-3.87-8.29H224.45l-3.92,8.29h-8.42l17.4-36.14Zm1.82,21.13-6.12-13.07-6.18,13.07Zm102,15L338,188.58H319.38l-3.92,8.29H307l17.41-36.14H333l17.4,36.14Zm-7.06-15-6.13-13.07-6.17,13.07ZM129.4,167.55H144v29.32h7.86V167.55h14.58v-6.82h-37Zm49.92-24.41h.43v-11l5.3-4.67,13.87,15.71h10.27l-18.42-20.77L208.23,107h-11l-17.51,15.88V107h-7.81v36.14h7.38Zm28.43,38.6v-21h-7.81v14.19H179.75V160.73h-7.81v36.14h7.81V181.74h20.19v15.13h7.81ZM260,143.14V128h20.18v15.13H288V107h-7.82v14.19H260V107H252.2v36.14H260Zm50.3,17.59-11.89,36.14h-8.36l-8-26.6L274,196.87h-8.32l-.06-.18-11.82-36H262l8.28,25.9,7.89-25.9h8L294,186.62l8.28-25.89Zm-39.91,26.2h0v0Zm106.89-26.2h-.52l-11.36,13.8-11.35-13.8h-9.55l16.93,20.58v15.56h7.81V181.31l16.88-20.58h-8.84Zm-314,66.6H53.48v-8.74H50v20.76h3.48v-8.76h9.83v8.76h3.46V218.59H63.31Zm35.46-4a14.12,14.12,0,0,1,0,11.3,9,9,0,0,1-3.42,3.8,11.09,11.09,0,0,1-10.68,0,8.87,8.87,0,0,1-3.41-3.8,14,14,0,0,1,0-11.3,8.92,8.92,0,0,1,3.41-3.8,11.16,11.16,0,0,1,10.68,0A9,9,0,0,1,98.77,223.32ZM96.28,229a10.38,10.38,0,0,0-.7-4,5.74,5.74,0,0,0-2.09-2.61,6.24,6.24,0,0,0-3.49-1,6,6,0,0,0-3.47.92A5.82,5.82,0,0,0,84.44,225a10.56,10.56,0,0,0-.69,4,10.38,10.38,0,0,0,.69,4,5.67,5.67,0,0,0,2.08,2.62,6.31,6.31,0,0,0,3.48,1,6,6,0,0,0,3.49-.92A5.72,5.72,0,0,0,95.58,233,10.52,10.52,0,0,0,96.28,229Zm27.28,4.33-7.18-14.71h-3.13v20.76h3.26V226l6.36,13.31h1.38L130.63,226v13.31h3.24V218.59h-3.13Zm24.76,6h13.41V236.1H151.8v-5.87H160V227h-8.2v-5.12h9.93v-3.26H148.32Zm40.92-10.23a7.57,7.57,0,0,0-1.84-1c-.63-.23-1.2-.41-1.71-.55l-3.72-1a9.88,9.88,0,0,1-1.39-.47,3.21,3.21,0,0,1-1.15-.76,1.72,1.72,0,0,1-.46-1.25,2,2,0,0,1,.54-1.41,3.56,3.56,0,0,1,1.43-.93,5.23,5.23,0,0,1,1.92-.31,5.44,5.44,0,0,1,2,.43,4.18,4.18,0,0,1,1.6,1.18,4,4,0,0,1,.89,1.86l3.74-.64a8,8,0,0,0-1.59-3.28,7.35,7.35,0,0,0-2.8-2.07,9.86,9.86,0,0,0-3.8-.73,10.4,10.4,0,0,0-3.83.67,6.05,6.05,0,0,0-2.74,2,5.46,5.46,0,0,0-1,3.37,5.27,5.27,0,0,0,.45,2.3,4.64,4.64,0,0,0,1.17,1.52,5.8,5.8,0,0,0,1.52.94,11.92,11.92,0,0,0,1.49.54l5.36,1.59a4.82,4.82,0,0,1,1,.41,2.92,2.92,0,0,1,.72.53,2,2,0,0,1,.43.65,2.32,2.32,0,0,1,.14.8,2.29,2.29,0,0,1-.61,1.63,3.79,3.79,0,0,1-1.6,1,6.24,6.24,0,0,1-2.09.35,5.64,5.64,0,0,1-3.31-1,4.76,4.76,0,0,1-1.89-2.86l-3.61.55a7.32,7.32,0,0,0,1.49,3.51,7.63,7.63,0,0,0,3,2.27,10.22,10.22,0,0,0,4.11.8,11.42,11.42,0,0,0,3.06-.41,8.18,8.18,0,0,0,2.6-1.21,5.94,5.94,0,0,0,1.81-2,5.79,5.79,0,0,0,.68-2.84,5.13,5.13,0,0,0-.57-2.56A4.88,4.88,0,0,0,189.24,229.12Zm15.56,10.23h13.41V236.1h-9.94v-5.87h8.21V227h-8.21v-5.12h9.94v-3.26H204.8Zm39.31-7.87,3.83,7.87H244l-3.52-7.25h-4.93v7.25h-3.48V218.59h8.58l.78,0a7.46,7.46,0,0,1,.88.09,6.42,6.42,0,0,1,3,1.2,5.6,5.6,0,0,1,1.74,2.33,8.25,8.25,0,0,1,.57,3.12,7.41,7.41,0,0,1-1.28,4.36A5,5,0,0,1,244.11,231.48Zm-8.55-2.62h5l.65,0a3.23,3.23,0,0,0,.66-.12,2.63,2.63,0,0,0,1.36-.76,3.29,3.29,0,0,0,.71-1.24,4.69,4.69,0,0,0,.21-1.36,4.74,4.74,0,0,0-.21-1.36,3.25,3.25,0,0,0-.71-1.25,2.63,2.63,0,0,0-1.36-.76,2.68,2.68,0,0,0-.66-.11c-.24,0-.46,0-.65,0h-5ZM268.71,236l-5.48-17.39h-3.58l6.55,20.76h5.09l6.55-20.76h-3.58Zm22,3.37h3.48V218.59H290.7Zm23.52-17a6,6,0,0,1,3.48-.94,5.9,5.9,0,0,1,3.78,1.15,6.15,6.15,0,0,1,2.06,3.18l3.5-1a9.4,9.4,0,0,0-3.36-4.84,9.65,9.65,0,0,0-6-1.79,10,10,0,0,0-5.34,1.36,8.92,8.92,0,0,0-3.41,3.8,14,14,0,0,0,0,11.3,8.87,8.87,0,0,0,3.41,3.8,10,10,0,0,0,5.34,1.37,9.66,9.66,0,0,0,6-1.8,9.36,9.36,0,0,0,3.36-4.84l-3.5-1a6.25,6.25,0,0,1-2.06,3.17,5.9,5.9,0,0,1-3.78,1.15,6.15,6.15,0,0,1-3.49-.93,5.77,5.77,0,0,1-2.1-2.64,10.24,10.24,0,0,1-.7-4,10.66,10.66,0,0,1,.71-4A5.7,5.7,0,0,1,314.22,222.37Zm26.41,17H354V236.1H344.1v-5.87h8.21V227H344.1v-5.12H354v-3.26H340.63Zm40.91-10.23a7.69,7.69,0,0,0-1.83-1c-.64-.23-1.21-.41-1.72-.55l-3.72-1a10.34,10.34,0,0,1-1.39-.47,3.21,3.21,0,0,1-1.15-.76,1.77,1.77,0,0,1-.46-1.25,2,2,0,0,1,.54-1.41,3.56,3.56,0,0,1,1.43-.93,5.25,5.25,0,0,1,1.93-.31,5.44,5.44,0,0,1,2,.43,4.25,4.25,0,0,1,1.6,1.18,4.14,4.14,0,0,1,.89,1.86l3.73-.64a8,8,0,0,0-1.59-3.28,7.39,7.39,0,0,0-2.79-2.07,10,10,0,0,0-3.81-.73,10.44,10.44,0,0,0-3.83.67,6.11,6.11,0,0,0-2.74,2,5.46,5.46,0,0,0-1,3.37,5.26,5.26,0,0,0,.46,2.3,4.38,4.38,0,0,0,1.17,1.52,5.75,5.75,0,0,0,1.51.94,11.92,11.92,0,0,0,1.49.54l5.37,1.59a5,5,0,0,1,1,.41,2.81,2.81,0,0,1,.73.53,2.13,2.13,0,0,1,.42.65,2.11,2.11,0,0,1,.15.8,2.3,2.3,0,0,1-.62,1.63,3.82,3.82,0,0,1-1.59,1,6.24,6.24,0,0,1-2.09.35,5.62,5.62,0,0,1-3.31-1,4.77,4.77,0,0,1-1.9-2.86l-3.6.55a7.32,7.32,0,0,0,1.49,3.51,7.49,7.49,0,0,0,3,2.27,10.13,10.13,0,0,0,4.1.8,11.49,11.49,0,0,0,3.07-.41,8.28,8.28,0,0,0,2.6-1.21,6,6,0,0,0,1.81-2,5.79,5.79,0,0,0,.67-2.84,5.13,5.13,0,0,0-.57-2.56A4.78,4.78,0,0,0,381.54,229.12Zm43.07,10.25V107h-2.67V239.37Z" transform="translate(-50 -106.27)"/><g id="DBA"><path d="M474.84,143.9a16.17,16.17,0,0,1-9-2.4,14.82,14.82,0,0,1-5.52-6.63,26.67,26.67,0,0,1,0-19.57,14.72,14.72,0,0,1,5.52-6.63,16.17,16.17,0,0,1,9-2.4,15.47,15.47,0,0,1,10.22,3.26,16.23,16.23,0,0,1,5.33,8.73l-3,.73a13.56,13.56,0,0,0-4.3-7.21,12.36,12.36,0,0,0-8.27-2.67,12.7,12.7,0,0,0-7.39,2,12.44,12.44,0,0,0-4.44,5.64,21.9,21.9,0,0,0-1.51,8.3,20.7,20.7,0,0,0,1.44,8.29,12.44,12.44,0,0,0,4.48,5.65,12.84,12.84,0,0,0,7.42,2,12.31,12.31,0,0,0,8.27-2.68,13.64,13.64,0,0,0,4.3-7.2l3,.73a16.17,16.17,0,0,1-5.33,8.72Q481.15,143.9,474.84,143.9Z" transform="translate(-50 -106.27)"/><path d="M510.84,143.9a16.18,16.18,0,0,1-9.06-2.4,14.89,14.89,0,0,1-5.52-6.63,26.8,26.8,0,0,1,0-19.57,14.78,14.78,0,0,1,5.52-6.63,18.26,18.26,0,0,1,18.1,0,14.74,14.74,0,0,1,5.5,6.63,26.67,26.67,0,0,1,0,19.57,14.84,14.84,0,0,1-5.5,6.63A16.13,16.13,0,0,1,510.84,143.9Zm0-2.84a12.53,12.53,0,0,0,7.4-2,12.35,12.35,0,0,0,4.43-5.65,24,24,0,0,0,0-16.61,12.22,12.22,0,0,0-4.43-5.64,12.75,12.75,0,0,0-7.4-2,12.59,12.59,0,0,0-7.39,2,12.34,12.34,0,0,0-4.43,5.66,22.34,22.34,0,0,0-1.53,8.31,21.05,21.05,0,0,0,1.44,8.29,12.5,12.5,0,0,0,4.48,5.65A12.87,12.87,0,0,0,510.84,141.06Z" transform="translate(-50 -106.27)"/><path d="M532.76,143.14V107h2.68l14.8,32,14.65-32h2.78v36.07h-2.83V113.67l-13.45,29.47H549l-13.47-29.47v29.47Z" transform="translate(-50 -106.27)"/><path d="M575.2,143.14V107h2.68l14.8,32,14.65-32h2.78v36.07h-2.83V113.67l-13.44,29.47h-2.36L578,113.67v29.47Z" transform="translate(-50 -106.27)"/><path d="M632.06,143.9a16.17,16.17,0,0,1-9-2.4,14.89,14.89,0,0,1-5.52-6.63,26.67,26.67,0,0,1,0-19.57,14.78,14.78,0,0,1,5.52-6.63,18.26,18.26,0,0,1,18.1,0,14.8,14.8,0,0,1,5.5,6.63,26.67,26.67,0,0,1,0,19.57,14.91,14.91,0,0,1-5.5,6.63A16.14,16.14,0,0,1,632.06,143.9Zm0-2.84a12.51,12.51,0,0,0,7.4-2,12.31,12.31,0,0,0,4.44-5.65,24,24,0,0,0,0-16.61,12.18,12.18,0,0,0-4.44-5.64,12.73,12.73,0,0,0-7.4-2,12.56,12.56,0,0,0-7.38,2,12.28,12.28,0,0,0-4.43,5.66,22.34,22.34,0,0,0-1.53,8.31,20.87,20.87,0,0,0,1.44,8.29,12.5,12.5,0,0,0,4.48,5.65A12.84,12.84,0,0,0,632.06,141.06Z" transform="translate(-50 -106.27)"/><path d="M654,143.14V107h2.9l20.92,31V107h2.91v36.12h-2.91l-20.92-31v31Z" transform="translate(-50 -106.27)"/><path d="M696,143.14,685.66,107h3l8.85,31.06L706.33,107h3l8.85,31.06L727.05,107h3L719.7,143.14h-3l-8.88-30.95L699,143.14Z" transform="translate(-50 -106.27)"/><path d="M735,143.14V107h22.32v2.81H737.91v13.72h16.43v2.81H737.91v14h19.44v2.81Z" transform="translate(-50 -106.27)"/><path d="M761.37,143.14,774.16,107h3.58l12.8,36.12h-3.06l-12.29-34.61h1.45l-12.21,34.61Zm5.29-9.08v-2.73h18.56v2.73Z" transform="translate(-50 -106.27)"/><path d="M796.05,143.14V107h2.89v33.31H816.5v2.81Z" transform="translate(-50 -106.27)"/><path d="M826.18,143.14V109.83H813.24V107H842v2.81h-13v33.31Z" transform="translate(-50 -106.27)"/><path d="M846.52,143.14V107h2.89v16.66h20.92V107h2.91v36.12h-2.91V126.49H849.41v16.65Z" transform="translate(-50 -106.27)"/><path d="M460.42,196.76V160.64H474c.35,0,.73,0,1.14,0a10.4,10.4,0,0,1,1.29.17,9.75,9.75,0,0,1,7.63,5.75,12.34,12.34,0,0,1,1,5.06A11.58,11.58,0,0,1,483,178.6a9.42,9.42,0,0,1-5.94,3.77l-.83.32H463.3v14.07Zm2.88-16.9H474c.3,0,.65,0,1-.05l1.19-.15a6.68,6.68,0,0,0,3.26-1.6,7.54,7.54,0,0,0,2-2.87,9.91,9.91,0,0,0,0-7.06,7.66,7.66,0,0,0-2-2.86,6.76,6.76,0,0,0-3.26-1.59c-.4-.08-.8-.14-1.19-.18s-.74-.05-1-.05H463.3Zm19.37,16.9-7.13-14.69,2.69-1.36,7.82,16Z" transform="translate(-50 -106.27)"/><path d="M492.07,196.76V160.64H514.4v2.81H495v13.72h16.43V180H495v14H514.4v2.8Z" transform="translate(-50 -106.27)"/><path d="M518.41,196.76l12.79-36.12h3.59l12.79,36.12h-3.06l-12.29-34.61h1.46l-12.22,34.61Zm5.29-9.08V185h18.56v2.73Z" transform="translate(-50 -106.27)"/><path d="M553.1,196.76V160.64H556V194h17.56v2.8Z" transform="translate(-50 -106.27)"/><path d="M586.33,196.76V160.64h22.33v2.81H589.22v13.72h16.43V180H589.22v14h19.44v2.8Z" transform="translate(-50 -106.27)"/><path d="M625.77,197.52a17.34,17.34,0,0,1-6.69-1.23,12.86,12.86,0,0,1-4.92-3.49,11.73,11.73,0,0,1-2.59-5.37l3-.5a9.57,9.57,0,0,0,4,5.7,12.78,12.78,0,0,0,7.34,2.08,13.28,13.28,0,0,0,5.14-.93,8.09,8.09,0,0,0,3.49-2.62,6.44,6.44,0,0,0,1.25-3.95,5.7,5.7,0,0,0-.59-2.74,5.46,5.46,0,0,0-1.51-1.81,8.63,8.63,0,0,0-2-1.16,20.26,20.26,0,0,0-2-.71l-9.08-2.71a15.25,15.25,0,0,1-3.22-1.32,9.75,9.75,0,0,1-2.38-1.83,7.12,7.12,0,0,1-1.48-2.37,8,8,0,0,1-.52-3,8.51,8.51,0,0,1,1.56-5.09,10.17,10.17,0,0,1,4.27-3.4,15.27,15.27,0,0,1,6.26-1.22,15.6,15.6,0,0,1,6.4,1.32,12.09,12.09,0,0,1,4.65,3.65,12.23,12.23,0,0,1,2.35,5.59l-3,.53a9,9,0,0,0-1.79-4.34,9.75,9.75,0,0,0-3.68-2.89,11.76,11.76,0,0,0-5-1,11,11,0,0,0-4.65.87,8,8,0,0,0-3.18,2.44,5.58,5.58,0,0,0-1.15,3.46,4.55,4.55,0,0,0,1.09,3.2,7.83,7.83,0,0,0,2.68,1.87,27.8,27.8,0,0,0,3,1.1l7.28,2.16c.68.2,1.5.48,2.45.85a12,12,0,0,1,2.81,1.57,8.06,8.06,0,0,1,2.3,2.68,8.62,8.62,0,0,1,.91,4.18,10.07,10.07,0,0,1-.92,4.36,9.17,9.17,0,0,1-2.66,3.28A12.57,12.57,0,0,1,631,196.8,17.69,17.69,0,0,1,625.77,197.52Z" transform="translate(-50 -106.27)"/><path d="M654.16,196.76V163.45H641.22v-2.81H670v2.81H657v33.31Z" transform="translate(-50 -106.27)"/><path d="M671,196.76l12.79-36.12h3.59l12.79,36.12H697.1l-12.29-34.61h1.46l-12.22,34.61Zm5.29-9.08V185h18.56v2.73Z" transform="translate(-50 -106.27)"/><path d="M712.1,196.76V163.45H699.16v-2.81h28.77v2.81H715v33.31Z" transform="translate(-50 -106.27)"/><path d="M732.44,196.76V160.64h22.33v2.81H735.33v13.72h16.43V180H735.33v14h19.44v2.8Z" transform="translate(-50 -106.27)"/></g></svg>